%TF.GenerationSoftware,KiCad,Pcbnew,8.0.3-8.0.3-0~ubuntu24.04.1*%
%TF.CreationDate,2024-07-06T11:56:43-06:00*%
%TF.ProjectId,esp-prog,6573702d-7072-46f6-972e-6b696361645f,rev?*%
%TF.SameCoordinates,Original*%
%TF.FileFunction,Drillmap*%
%TF.FilePolarity,Positive*%
%FSLAX45Y45*%
G04 Gerber Fmt 4.5, Leading zero omitted, Abs format (unit mm)*
G04 Created by KiCad (PCBNEW 8.0.3-8.0.3-0~ubuntu24.04.1) date 2024-07-06 11:56:43*
%MOMM*%
%LPD*%
G01*
G04 APERTURE LIST*
%ADD10C,0.050000*%
%ADD11C,0.200000*%
%ADD12C,0.100000*%
G04 APERTURE END LIST*
D10*
X2000000Y-2000000D02*
X5000000Y-2000000D01*
X5000000Y-4000000D01*
X2000000Y-4000000D01*
X2000000Y-2000000D01*
D11*
D12*
X2732500Y-3590000D02*
X2757500Y-3615000D01*
X2757500Y-3590000D02*
X2732500Y-3615000D01*
X2767500Y-2667500D02*
X2792500Y-2692500D01*
X2792500Y-2667500D02*
X2767500Y-2692500D01*
X2769789Y-2832500D02*
X2794789Y-2857500D01*
X2794789Y-2832500D02*
X2769789Y-2857500D01*
X2772500Y-2952500D02*
X2797500Y-2977500D01*
X2797500Y-2952500D02*
X2772500Y-2977500D01*
X2772500Y-3072500D02*
X2797500Y-3097500D01*
X2797500Y-3072500D02*
X2772500Y-3097500D01*
X2772500Y-3152500D02*
X2797500Y-3177500D01*
X2797500Y-3152500D02*
X2772500Y-3177500D01*
X2772500Y-3312501D02*
X2797500Y-3337501D01*
X2797500Y-3312501D02*
X2772500Y-3337501D01*
X2831695Y-2898686D02*
X2856695Y-2923686D01*
X2856695Y-2898686D02*
X2831695Y-2923686D01*
X2834950Y-3022500D02*
X2859950Y-3047500D01*
X2859950Y-3022500D02*
X2834950Y-3047500D01*
X2912500Y-3347500D02*
X2937500Y-3372500D01*
X2937500Y-3347500D02*
X2912500Y-3372500D01*
X2942500Y-2387500D02*
X2967500Y-2412500D01*
X2967500Y-2387500D02*
X2942500Y-2412500D01*
X2992500Y-3685000D02*
X3017500Y-3710000D01*
X3017500Y-3685000D02*
X2992500Y-3710000D01*
X3102500Y-2227500D02*
X3127500Y-2252500D01*
X3127500Y-2227500D02*
X3102500Y-2252500D01*
X3102500Y-2987500D02*
X3127500Y-3012500D01*
X3127500Y-2987500D02*
X3102500Y-3012500D01*
X3152500Y-3685000D02*
X3177500Y-3710000D01*
X3177500Y-3685000D02*
X3152500Y-3710000D01*
X3202500Y-2887500D02*
X3227500Y-2912500D01*
X3227500Y-2887500D02*
X3202500Y-2912500D01*
X3202500Y-2986250D02*
X3227500Y-3011250D01*
X3227500Y-2986250D02*
X3202500Y-3011250D01*
X3202500Y-3082500D02*
X3227500Y-3107500D01*
X3227500Y-3082500D02*
X3202500Y-3107500D01*
X3302500Y-2987500D02*
X3327500Y-3012500D01*
X3327500Y-2987500D02*
X3302500Y-3012500D01*
X3312500Y-3337500D02*
X3337500Y-3362500D01*
X3337500Y-3337500D02*
X3312500Y-3362500D01*
X3387500Y-2492500D02*
X3412500Y-2517500D01*
X3412500Y-2492500D02*
X3387500Y-2517500D01*
X3537500Y-2082500D02*
X3562500Y-2107500D01*
X3562500Y-2082500D02*
X3537500Y-2107500D01*
X3537500Y-2307500D02*
X3562500Y-2332500D01*
X3562500Y-2307500D02*
X3537500Y-2332500D01*
X3537500Y-2532500D02*
X3562500Y-2557500D01*
X3562500Y-2532500D02*
X3537500Y-2557500D01*
X3572500Y-3592500D02*
X3597500Y-3617500D01*
X3597500Y-3592500D02*
X3572500Y-3617500D01*
X3617500Y-3122500D02*
X3642500Y-3147500D01*
X3642500Y-3122500D02*
X3617500Y-3147500D01*
X3617500Y-3462500D02*
X3642500Y-3487500D01*
X3642500Y-3462500D02*
X3617500Y-3487500D01*
X3667426Y-2812573D02*
X3692426Y-2837573D01*
X3692426Y-2812573D02*
X3667426Y-2837573D01*
X3667500Y-2677500D02*
X3692500Y-2702500D01*
X3692500Y-2677500D02*
X3667500Y-2702500D01*
X3722500Y-2342500D02*
X3747500Y-2367500D01*
X3747500Y-2342500D02*
X3722500Y-2367500D01*
X3877500Y-3177500D02*
X3902500Y-3202500D01*
X3902500Y-3177500D02*
X3877500Y-3202500D01*
X4127500Y-3072500D02*
X4152500Y-3097500D01*
X4152500Y-3072500D02*
X4127500Y-3097500D01*
X4297500Y-2742500D02*
X4322500Y-2767500D01*
X4322500Y-2742500D02*
X4297500Y-2767500D01*
X4297500Y-2862500D02*
X4322500Y-2887500D01*
X4322500Y-2862500D02*
X4297500Y-2887500D01*
X4307500Y-3112500D02*
X4332500Y-3137500D01*
X4332500Y-3112500D02*
X4307500Y-3137500D01*
X4307500Y-3237500D02*
X4332500Y-3262500D01*
X4332500Y-3237500D02*
X4307500Y-3262500D01*
X4307500Y-3362500D02*
X4332500Y-3387500D01*
X4332500Y-3362500D02*
X4307500Y-3387500D01*
X4452500Y-2502500D02*
X4477500Y-2527500D01*
X4477500Y-2502500D02*
X4452500Y-2527500D01*
X4522500Y-2417500D02*
X4547500Y-2442500D01*
X4547500Y-2417500D02*
X4522500Y-2442500D01*
X4707500Y-3112500D02*
X4732500Y-3137500D01*
X4732500Y-3112500D02*
X4707500Y-3137500D01*
X4732500Y-3607500D02*
X4757500Y-3632500D01*
X4757500Y-3607500D02*
X4732500Y-3632500D01*
X4737500Y-2362500D02*
X4762500Y-2387500D01*
X4762500Y-2362500D02*
X4737500Y-2387500D01*
X4920000Y-2520000D02*
G75*
G02*
X4830000Y-2520000I-45000J0D01*
G01*
X4830000Y-2520000D02*
G75*
G02*
X4920000Y-2520000I45000J0D01*
G01*
X4920000Y-3480000D02*
G75*
G02*
X4830000Y-3480000I-45000J0D01*
G01*
X4830000Y-3480000D02*
G75*
G02*
X4920000Y-3480000I45000J0D01*
G01*
D11*
X2258277Y-4313984D02*
X2258277Y-4113984D01*
X2258277Y-4113984D02*
X2305896Y-4113984D01*
X2305896Y-4113984D02*
X2334467Y-4123508D01*
X2334467Y-4123508D02*
X2353515Y-4142555D01*
X2353515Y-4142555D02*
X2363039Y-4161603D01*
X2363039Y-4161603D02*
X2372563Y-4199698D01*
X2372563Y-4199698D02*
X2372563Y-4228270D01*
X2372563Y-4228270D02*
X2363039Y-4266365D01*
X2363039Y-4266365D02*
X2353515Y-4285412D01*
X2353515Y-4285412D02*
X2334467Y-4304460D01*
X2334467Y-4304460D02*
X2305896Y-4313984D01*
X2305896Y-4313984D02*
X2258277Y-4313984D01*
X2458277Y-4313984D02*
X2458277Y-4180650D01*
X2458277Y-4218746D02*
X2467801Y-4199698D01*
X2467801Y-4199698D02*
X2477324Y-4190174D01*
X2477324Y-4190174D02*
X2496372Y-4180650D01*
X2496372Y-4180650D02*
X2515420Y-4180650D01*
X2582086Y-4313984D02*
X2582086Y-4180650D01*
X2582086Y-4113984D02*
X2572563Y-4123508D01*
X2572563Y-4123508D02*
X2582086Y-4133031D01*
X2582086Y-4133031D02*
X2591610Y-4123508D01*
X2591610Y-4123508D02*
X2582086Y-4113984D01*
X2582086Y-4113984D02*
X2582086Y-4133031D01*
X2705896Y-4313984D02*
X2686848Y-4304460D01*
X2686848Y-4304460D02*
X2677324Y-4285412D01*
X2677324Y-4285412D02*
X2677324Y-4113984D01*
X2810658Y-4313984D02*
X2791610Y-4304460D01*
X2791610Y-4304460D02*
X2782086Y-4285412D01*
X2782086Y-4285412D02*
X2782086Y-4113984D01*
X3039229Y-4313984D02*
X3039229Y-4113984D01*
X3039229Y-4113984D02*
X3105896Y-4256841D01*
X3105896Y-4256841D02*
X3172562Y-4113984D01*
X3172562Y-4113984D02*
X3172562Y-4313984D01*
X3353515Y-4313984D02*
X3353515Y-4209222D01*
X3353515Y-4209222D02*
X3343991Y-4190174D01*
X3343991Y-4190174D02*
X3324943Y-4180650D01*
X3324943Y-4180650D02*
X3286848Y-4180650D01*
X3286848Y-4180650D02*
X3267801Y-4190174D01*
X3353515Y-4304460D02*
X3334467Y-4313984D01*
X3334467Y-4313984D02*
X3286848Y-4313984D01*
X3286848Y-4313984D02*
X3267801Y-4304460D01*
X3267801Y-4304460D02*
X3258277Y-4285412D01*
X3258277Y-4285412D02*
X3258277Y-4266365D01*
X3258277Y-4266365D02*
X3267801Y-4247317D01*
X3267801Y-4247317D02*
X3286848Y-4237793D01*
X3286848Y-4237793D02*
X3334467Y-4237793D01*
X3334467Y-4237793D02*
X3353515Y-4228270D01*
X3448753Y-4180650D02*
X3448753Y-4380650D01*
X3448753Y-4190174D02*
X3467801Y-4180650D01*
X3467801Y-4180650D02*
X3505896Y-4180650D01*
X3505896Y-4180650D02*
X3524943Y-4190174D01*
X3524943Y-4190174D02*
X3534467Y-4199698D01*
X3534467Y-4199698D02*
X3543991Y-4218746D01*
X3543991Y-4218746D02*
X3543991Y-4275889D01*
X3543991Y-4275889D02*
X3534467Y-4294936D01*
X3534467Y-4294936D02*
X3524943Y-4304460D01*
X3524943Y-4304460D02*
X3505896Y-4313984D01*
X3505896Y-4313984D02*
X3467801Y-4313984D01*
X3467801Y-4313984D02*
X3448753Y-4304460D01*
X3629705Y-4294936D02*
X3639229Y-4304460D01*
X3639229Y-4304460D02*
X3629705Y-4313984D01*
X3629705Y-4313984D02*
X3620182Y-4304460D01*
X3620182Y-4304460D02*
X3629705Y-4294936D01*
X3629705Y-4294936D02*
X3629705Y-4313984D01*
X3629705Y-4190174D02*
X3639229Y-4199698D01*
X3639229Y-4199698D02*
X3629705Y-4209222D01*
X3629705Y-4209222D02*
X3620182Y-4199698D01*
X3620182Y-4199698D02*
X3629705Y-4190174D01*
X3629705Y-4190174D02*
X3629705Y-4209222D01*
D12*
X1972500Y-4630000D02*
X1997500Y-4655000D01*
X1997500Y-4630000D02*
X1972500Y-4655000D01*
D11*
X2296372Y-4533984D02*
X2315420Y-4533984D01*
X2315420Y-4533984D02*
X2334467Y-4543508D01*
X2334467Y-4543508D02*
X2343991Y-4553031D01*
X2343991Y-4553031D02*
X2353515Y-4572079D01*
X2353515Y-4572079D02*
X2363039Y-4610174D01*
X2363039Y-4610174D02*
X2363039Y-4657793D01*
X2363039Y-4657793D02*
X2353515Y-4695889D01*
X2353515Y-4695889D02*
X2343991Y-4714936D01*
X2343991Y-4714936D02*
X2334467Y-4724460D01*
X2334467Y-4724460D02*
X2315420Y-4733984D01*
X2315420Y-4733984D02*
X2296372Y-4733984D01*
X2296372Y-4733984D02*
X2277324Y-4724460D01*
X2277324Y-4724460D02*
X2267801Y-4714936D01*
X2267801Y-4714936D02*
X2258277Y-4695889D01*
X2258277Y-4695889D02*
X2248753Y-4657793D01*
X2248753Y-4657793D02*
X2248753Y-4610174D01*
X2248753Y-4610174D02*
X2258277Y-4572079D01*
X2258277Y-4572079D02*
X2267801Y-4553031D01*
X2267801Y-4553031D02*
X2277324Y-4543508D01*
X2277324Y-4543508D02*
X2296372Y-4533984D01*
X2448753Y-4714936D02*
X2458277Y-4724460D01*
X2458277Y-4724460D02*
X2448753Y-4733984D01*
X2448753Y-4733984D02*
X2439229Y-4724460D01*
X2439229Y-4724460D02*
X2448753Y-4714936D01*
X2448753Y-4714936D02*
X2448753Y-4733984D01*
X2534467Y-4553031D02*
X2543991Y-4543508D01*
X2543991Y-4543508D02*
X2563039Y-4533984D01*
X2563039Y-4533984D02*
X2610658Y-4533984D01*
X2610658Y-4533984D02*
X2629705Y-4543508D01*
X2629705Y-4543508D02*
X2639229Y-4553031D01*
X2639229Y-4553031D02*
X2648753Y-4572079D01*
X2648753Y-4572079D02*
X2648753Y-4591127D01*
X2648753Y-4591127D02*
X2639229Y-4619698D01*
X2639229Y-4619698D02*
X2524944Y-4733984D01*
X2524944Y-4733984D02*
X2648753Y-4733984D01*
X2829705Y-4533984D02*
X2734467Y-4533984D01*
X2734467Y-4533984D02*
X2724944Y-4629222D01*
X2724944Y-4629222D02*
X2734467Y-4619698D01*
X2734467Y-4619698D02*
X2753515Y-4610174D01*
X2753515Y-4610174D02*
X2801134Y-4610174D01*
X2801134Y-4610174D02*
X2820182Y-4619698D01*
X2820182Y-4619698D02*
X2829705Y-4629222D01*
X2829705Y-4629222D02*
X2839229Y-4648270D01*
X2839229Y-4648270D02*
X2839229Y-4695889D01*
X2839229Y-4695889D02*
X2829705Y-4714936D01*
X2829705Y-4714936D02*
X2820182Y-4724460D01*
X2820182Y-4724460D02*
X2801134Y-4733984D01*
X2801134Y-4733984D02*
X2753515Y-4733984D01*
X2753515Y-4733984D02*
X2734467Y-4724460D01*
X2734467Y-4724460D02*
X2724944Y-4714936D01*
X2963039Y-4533984D02*
X2982086Y-4533984D01*
X2982086Y-4533984D02*
X3001134Y-4543508D01*
X3001134Y-4543508D02*
X3010658Y-4553031D01*
X3010658Y-4553031D02*
X3020182Y-4572079D01*
X3020182Y-4572079D02*
X3029705Y-4610174D01*
X3029705Y-4610174D02*
X3029705Y-4657793D01*
X3029705Y-4657793D02*
X3020182Y-4695889D01*
X3020182Y-4695889D02*
X3010658Y-4714936D01*
X3010658Y-4714936D02*
X3001134Y-4724460D01*
X3001134Y-4724460D02*
X2982086Y-4733984D01*
X2982086Y-4733984D02*
X2963039Y-4733984D01*
X2963039Y-4733984D02*
X2943991Y-4724460D01*
X2943991Y-4724460D02*
X2934467Y-4714936D01*
X2934467Y-4714936D02*
X2924943Y-4695889D01*
X2924943Y-4695889D02*
X2915420Y-4657793D01*
X2915420Y-4657793D02*
X2915420Y-4610174D01*
X2915420Y-4610174D02*
X2924943Y-4572079D01*
X2924943Y-4572079D02*
X2934467Y-4553031D01*
X2934467Y-4553031D02*
X2943991Y-4543508D01*
X2943991Y-4543508D02*
X2963039Y-4533984D01*
X3115420Y-4733984D02*
X3115420Y-4600650D01*
X3115420Y-4619698D02*
X3124943Y-4610174D01*
X3124943Y-4610174D02*
X3143991Y-4600650D01*
X3143991Y-4600650D02*
X3172563Y-4600650D01*
X3172563Y-4600650D02*
X3191610Y-4610174D01*
X3191610Y-4610174D02*
X3201134Y-4629222D01*
X3201134Y-4629222D02*
X3201134Y-4733984D01*
X3201134Y-4629222D02*
X3210658Y-4610174D01*
X3210658Y-4610174D02*
X3229705Y-4600650D01*
X3229705Y-4600650D02*
X3258277Y-4600650D01*
X3258277Y-4600650D02*
X3277324Y-4610174D01*
X3277324Y-4610174D02*
X3286848Y-4629222D01*
X3286848Y-4629222D02*
X3286848Y-4733984D01*
X3382086Y-4733984D02*
X3382086Y-4600650D01*
X3382086Y-4619698D02*
X3391610Y-4610174D01*
X3391610Y-4610174D02*
X3410658Y-4600650D01*
X3410658Y-4600650D02*
X3439229Y-4600650D01*
X3439229Y-4600650D02*
X3458277Y-4610174D01*
X3458277Y-4610174D02*
X3467801Y-4629222D01*
X3467801Y-4629222D02*
X3467801Y-4733984D01*
X3467801Y-4629222D02*
X3477324Y-4610174D01*
X3477324Y-4610174D02*
X3496372Y-4600650D01*
X3496372Y-4600650D02*
X3524943Y-4600650D01*
X3524943Y-4600650D02*
X3543991Y-4610174D01*
X3543991Y-4610174D02*
X3553515Y-4629222D01*
X3553515Y-4629222D02*
X3553515Y-4733984D01*
X3943991Y-4524460D02*
X3772563Y-4781603D01*
X4201134Y-4533984D02*
X4220182Y-4533984D01*
X4220182Y-4533984D02*
X4239229Y-4543508D01*
X4239229Y-4543508D02*
X4248753Y-4553031D01*
X4248753Y-4553031D02*
X4258277Y-4572079D01*
X4258277Y-4572079D02*
X4267801Y-4610174D01*
X4267801Y-4610174D02*
X4267801Y-4657793D01*
X4267801Y-4657793D02*
X4258277Y-4695889D01*
X4258277Y-4695889D02*
X4248753Y-4714936D01*
X4248753Y-4714936D02*
X4239229Y-4724460D01*
X4239229Y-4724460D02*
X4220182Y-4733984D01*
X4220182Y-4733984D02*
X4201134Y-4733984D01*
X4201134Y-4733984D02*
X4182086Y-4724460D01*
X4182086Y-4724460D02*
X4172563Y-4714936D01*
X4172563Y-4714936D02*
X4163039Y-4695889D01*
X4163039Y-4695889D02*
X4153515Y-4657793D01*
X4153515Y-4657793D02*
X4153515Y-4610174D01*
X4153515Y-4610174D02*
X4163039Y-4572079D01*
X4163039Y-4572079D02*
X4172563Y-4553031D01*
X4172563Y-4553031D02*
X4182086Y-4543508D01*
X4182086Y-4543508D02*
X4201134Y-4533984D01*
X4353515Y-4714936D02*
X4363039Y-4724460D01*
X4363039Y-4724460D02*
X4353515Y-4733984D01*
X4353515Y-4733984D02*
X4343991Y-4724460D01*
X4343991Y-4724460D02*
X4353515Y-4714936D01*
X4353515Y-4714936D02*
X4353515Y-4733984D01*
X4486848Y-4533984D02*
X4505896Y-4533984D01*
X4505896Y-4533984D02*
X4524944Y-4543508D01*
X4524944Y-4543508D02*
X4534468Y-4553031D01*
X4534468Y-4553031D02*
X4543991Y-4572079D01*
X4543991Y-4572079D02*
X4553515Y-4610174D01*
X4553515Y-4610174D02*
X4553515Y-4657793D01*
X4553515Y-4657793D02*
X4543991Y-4695889D01*
X4543991Y-4695889D02*
X4534468Y-4714936D01*
X4534468Y-4714936D02*
X4524944Y-4724460D01*
X4524944Y-4724460D02*
X4505896Y-4733984D01*
X4505896Y-4733984D02*
X4486848Y-4733984D01*
X4486848Y-4733984D02*
X4467801Y-4724460D01*
X4467801Y-4724460D02*
X4458277Y-4714936D01*
X4458277Y-4714936D02*
X4448753Y-4695889D01*
X4448753Y-4695889D02*
X4439229Y-4657793D01*
X4439229Y-4657793D02*
X4439229Y-4610174D01*
X4439229Y-4610174D02*
X4448753Y-4572079D01*
X4448753Y-4572079D02*
X4458277Y-4553031D01*
X4458277Y-4553031D02*
X4467801Y-4543508D01*
X4467801Y-4543508D02*
X4486848Y-4533984D01*
X4677325Y-4533984D02*
X4696372Y-4533984D01*
X4696372Y-4533984D02*
X4715420Y-4543508D01*
X4715420Y-4543508D02*
X4724944Y-4553031D01*
X4724944Y-4553031D02*
X4734468Y-4572079D01*
X4734468Y-4572079D02*
X4743991Y-4610174D01*
X4743991Y-4610174D02*
X4743991Y-4657793D01*
X4743991Y-4657793D02*
X4734468Y-4695889D01*
X4734468Y-4695889D02*
X4724944Y-4714936D01*
X4724944Y-4714936D02*
X4715420Y-4724460D01*
X4715420Y-4724460D02*
X4696372Y-4733984D01*
X4696372Y-4733984D02*
X4677325Y-4733984D01*
X4677325Y-4733984D02*
X4658277Y-4724460D01*
X4658277Y-4724460D02*
X4648753Y-4714936D01*
X4648753Y-4714936D02*
X4639229Y-4695889D01*
X4639229Y-4695889D02*
X4629706Y-4657793D01*
X4629706Y-4657793D02*
X4629706Y-4610174D01*
X4629706Y-4610174D02*
X4639229Y-4572079D01*
X4639229Y-4572079D02*
X4648753Y-4553031D01*
X4648753Y-4553031D02*
X4658277Y-4543508D01*
X4658277Y-4543508D02*
X4677325Y-4533984D01*
X4839229Y-4733984D02*
X4877325Y-4733984D01*
X4877325Y-4733984D02*
X4896372Y-4724460D01*
X4896372Y-4724460D02*
X4905896Y-4714936D01*
X4905896Y-4714936D02*
X4924944Y-4686365D01*
X4924944Y-4686365D02*
X4934468Y-4648270D01*
X4934468Y-4648270D02*
X4934468Y-4572079D01*
X4934468Y-4572079D02*
X4924944Y-4553031D01*
X4924944Y-4553031D02*
X4915420Y-4543508D01*
X4915420Y-4543508D02*
X4896372Y-4533984D01*
X4896372Y-4533984D02*
X4858277Y-4533984D01*
X4858277Y-4533984D02*
X4839229Y-4543508D01*
X4839229Y-4543508D02*
X4829706Y-4553031D01*
X4829706Y-4553031D02*
X4820182Y-4572079D01*
X4820182Y-4572079D02*
X4820182Y-4619698D01*
X4820182Y-4619698D02*
X4829706Y-4638746D01*
X4829706Y-4638746D02*
X4839229Y-4648270D01*
X4839229Y-4648270D02*
X4858277Y-4657793D01*
X4858277Y-4657793D02*
X4896372Y-4657793D01*
X4896372Y-4657793D02*
X4915420Y-4648270D01*
X4915420Y-4648270D02*
X4924944Y-4638746D01*
X4924944Y-4638746D02*
X4934468Y-4619698D01*
X5048753Y-4619698D02*
X5029706Y-4610174D01*
X5029706Y-4610174D02*
X5020182Y-4600650D01*
X5020182Y-4600650D02*
X5010658Y-4581603D01*
X5010658Y-4581603D02*
X5010658Y-4572079D01*
X5010658Y-4572079D02*
X5020182Y-4553031D01*
X5020182Y-4553031D02*
X5029706Y-4543508D01*
X5029706Y-4543508D02*
X5048753Y-4533984D01*
X5048753Y-4533984D02*
X5086849Y-4533984D01*
X5086849Y-4533984D02*
X5105896Y-4543508D01*
X5105896Y-4543508D02*
X5115420Y-4553031D01*
X5115420Y-4553031D02*
X5124944Y-4572079D01*
X5124944Y-4572079D02*
X5124944Y-4581603D01*
X5124944Y-4581603D02*
X5115420Y-4600650D01*
X5115420Y-4600650D02*
X5105896Y-4610174D01*
X5105896Y-4610174D02*
X5086849Y-4619698D01*
X5086849Y-4619698D02*
X5048753Y-4619698D01*
X5048753Y-4619698D02*
X5029706Y-4629222D01*
X5029706Y-4629222D02*
X5020182Y-4638746D01*
X5020182Y-4638746D02*
X5010658Y-4657793D01*
X5010658Y-4657793D02*
X5010658Y-4695889D01*
X5010658Y-4695889D02*
X5020182Y-4714936D01*
X5020182Y-4714936D02*
X5029706Y-4724460D01*
X5029706Y-4724460D02*
X5048753Y-4733984D01*
X5048753Y-4733984D02*
X5086849Y-4733984D01*
X5086849Y-4733984D02*
X5105896Y-4724460D01*
X5105896Y-4724460D02*
X5115420Y-4714936D01*
X5115420Y-4714936D02*
X5124944Y-4695889D01*
X5124944Y-4695889D02*
X5124944Y-4657793D01*
X5124944Y-4657793D02*
X5115420Y-4638746D01*
X5115420Y-4638746D02*
X5105896Y-4629222D01*
X5105896Y-4629222D02*
X5086849Y-4619698D01*
X5201134Y-4533984D02*
X5201134Y-4572079D01*
X5277325Y-4533984D02*
X5277325Y-4572079D01*
X5572563Y-4810174D02*
X5563039Y-4800650D01*
X5563039Y-4800650D02*
X5543991Y-4772079D01*
X5543991Y-4772079D02*
X5534468Y-4753031D01*
X5534468Y-4753031D02*
X5524944Y-4724460D01*
X5524944Y-4724460D02*
X5515420Y-4676841D01*
X5515420Y-4676841D02*
X5515420Y-4638746D01*
X5515420Y-4638746D02*
X5524944Y-4591127D01*
X5524944Y-4591127D02*
X5534468Y-4562555D01*
X5534468Y-4562555D02*
X5543991Y-4543508D01*
X5543991Y-4543508D02*
X5563039Y-4514936D01*
X5563039Y-4514936D02*
X5572563Y-4505412D01*
X5734468Y-4600650D02*
X5734468Y-4733984D01*
X5686848Y-4524460D02*
X5639229Y-4667317D01*
X5639229Y-4667317D02*
X5763039Y-4667317D01*
X5829706Y-4553031D02*
X5839229Y-4543508D01*
X5839229Y-4543508D02*
X5858277Y-4533984D01*
X5858277Y-4533984D02*
X5905896Y-4533984D01*
X5905896Y-4533984D02*
X5924944Y-4543508D01*
X5924944Y-4543508D02*
X5934468Y-4553031D01*
X5934468Y-4553031D02*
X5943991Y-4572079D01*
X5943991Y-4572079D02*
X5943991Y-4591127D01*
X5943991Y-4591127D02*
X5934468Y-4619698D01*
X5934468Y-4619698D02*
X5820182Y-4733984D01*
X5820182Y-4733984D02*
X5943991Y-4733984D01*
X6182087Y-4733984D02*
X6182087Y-4533984D01*
X6267801Y-4733984D02*
X6267801Y-4629222D01*
X6267801Y-4629222D02*
X6258277Y-4610174D01*
X6258277Y-4610174D02*
X6239230Y-4600650D01*
X6239230Y-4600650D02*
X6210658Y-4600650D01*
X6210658Y-4600650D02*
X6191610Y-4610174D01*
X6191610Y-4610174D02*
X6182087Y-4619698D01*
X6391610Y-4733984D02*
X6372563Y-4724460D01*
X6372563Y-4724460D02*
X6363039Y-4714936D01*
X6363039Y-4714936D02*
X6353515Y-4695889D01*
X6353515Y-4695889D02*
X6353515Y-4638746D01*
X6353515Y-4638746D02*
X6363039Y-4619698D01*
X6363039Y-4619698D02*
X6372563Y-4610174D01*
X6372563Y-4610174D02*
X6391610Y-4600650D01*
X6391610Y-4600650D02*
X6420182Y-4600650D01*
X6420182Y-4600650D02*
X6439230Y-4610174D01*
X6439230Y-4610174D02*
X6448753Y-4619698D01*
X6448753Y-4619698D02*
X6458277Y-4638746D01*
X6458277Y-4638746D02*
X6458277Y-4695889D01*
X6458277Y-4695889D02*
X6448753Y-4714936D01*
X6448753Y-4714936D02*
X6439230Y-4724460D01*
X6439230Y-4724460D02*
X6420182Y-4733984D01*
X6420182Y-4733984D02*
X6391610Y-4733984D01*
X6572563Y-4733984D02*
X6553515Y-4724460D01*
X6553515Y-4724460D02*
X6543991Y-4705412D01*
X6543991Y-4705412D02*
X6543991Y-4533984D01*
X6724944Y-4724460D02*
X6705896Y-4733984D01*
X6705896Y-4733984D02*
X6667801Y-4733984D01*
X6667801Y-4733984D02*
X6648753Y-4724460D01*
X6648753Y-4724460D02*
X6639230Y-4705412D01*
X6639230Y-4705412D02*
X6639230Y-4629222D01*
X6639230Y-4629222D02*
X6648753Y-4610174D01*
X6648753Y-4610174D02*
X6667801Y-4600650D01*
X6667801Y-4600650D02*
X6705896Y-4600650D01*
X6705896Y-4600650D02*
X6724944Y-4610174D01*
X6724944Y-4610174D02*
X6734468Y-4629222D01*
X6734468Y-4629222D02*
X6734468Y-4648270D01*
X6734468Y-4648270D02*
X6639230Y-4667317D01*
X6810658Y-4724460D02*
X6829706Y-4733984D01*
X6829706Y-4733984D02*
X6867801Y-4733984D01*
X6867801Y-4733984D02*
X6886849Y-4724460D01*
X6886849Y-4724460D02*
X6896372Y-4705412D01*
X6896372Y-4705412D02*
X6896372Y-4695889D01*
X6896372Y-4695889D02*
X6886849Y-4676841D01*
X6886849Y-4676841D02*
X6867801Y-4667317D01*
X6867801Y-4667317D02*
X6839230Y-4667317D01*
X6839230Y-4667317D02*
X6820182Y-4657793D01*
X6820182Y-4657793D02*
X6810658Y-4638746D01*
X6810658Y-4638746D02*
X6810658Y-4629222D01*
X6810658Y-4629222D02*
X6820182Y-4610174D01*
X6820182Y-4610174D02*
X6839230Y-4600650D01*
X6839230Y-4600650D02*
X6867801Y-4600650D01*
X6867801Y-4600650D02*
X6886849Y-4610174D01*
X6963039Y-4810174D02*
X6972563Y-4800650D01*
X6972563Y-4800650D02*
X6991611Y-4772079D01*
X6991611Y-4772079D02*
X7001134Y-4753031D01*
X7001134Y-4753031D02*
X7010658Y-4724460D01*
X7010658Y-4724460D02*
X7020182Y-4676841D01*
X7020182Y-4676841D02*
X7020182Y-4638746D01*
X7020182Y-4638746D02*
X7010658Y-4591127D01*
X7010658Y-4591127D02*
X7001134Y-4562555D01*
X7001134Y-4562555D02*
X6991611Y-4543508D01*
X6991611Y-4543508D02*
X6972563Y-4514936D01*
X6972563Y-4514936D02*
X6963039Y-4505412D01*
D12*
X1997500Y-4906500D02*
G75*
G02*
X1907500Y-4906500I-45000J0D01*
G01*
X1907500Y-4906500D02*
G75*
G02*
X1997500Y-4906500I45000J0D01*
G01*
D11*
X2296372Y-4797984D02*
X2315420Y-4797984D01*
X2315420Y-4797984D02*
X2334467Y-4807508D01*
X2334467Y-4807508D02*
X2343991Y-4817031D01*
X2343991Y-4817031D02*
X2353515Y-4836079D01*
X2353515Y-4836079D02*
X2363039Y-4874174D01*
X2363039Y-4874174D02*
X2363039Y-4921793D01*
X2363039Y-4921793D02*
X2353515Y-4959889D01*
X2353515Y-4959889D02*
X2343991Y-4978936D01*
X2343991Y-4978936D02*
X2334467Y-4988460D01*
X2334467Y-4988460D02*
X2315420Y-4997984D01*
X2315420Y-4997984D02*
X2296372Y-4997984D01*
X2296372Y-4997984D02*
X2277324Y-4988460D01*
X2277324Y-4988460D02*
X2267801Y-4978936D01*
X2267801Y-4978936D02*
X2258277Y-4959889D01*
X2258277Y-4959889D02*
X2248753Y-4921793D01*
X2248753Y-4921793D02*
X2248753Y-4874174D01*
X2248753Y-4874174D02*
X2258277Y-4836079D01*
X2258277Y-4836079D02*
X2267801Y-4817031D01*
X2267801Y-4817031D02*
X2277324Y-4807508D01*
X2277324Y-4807508D02*
X2296372Y-4797984D01*
X2448753Y-4978936D02*
X2458277Y-4988460D01*
X2458277Y-4988460D02*
X2448753Y-4997984D01*
X2448753Y-4997984D02*
X2439229Y-4988460D01*
X2439229Y-4988460D02*
X2448753Y-4978936D01*
X2448753Y-4978936D02*
X2448753Y-4997984D01*
X2553515Y-4997984D02*
X2591610Y-4997984D01*
X2591610Y-4997984D02*
X2610658Y-4988460D01*
X2610658Y-4988460D02*
X2620182Y-4978936D01*
X2620182Y-4978936D02*
X2639229Y-4950365D01*
X2639229Y-4950365D02*
X2648753Y-4912270D01*
X2648753Y-4912270D02*
X2648753Y-4836079D01*
X2648753Y-4836079D02*
X2639229Y-4817031D01*
X2639229Y-4817031D02*
X2629705Y-4807508D01*
X2629705Y-4807508D02*
X2610658Y-4797984D01*
X2610658Y-4797984D02*
X2572563Y-4797984D01*
X2572563Y-4797984D02*
X2553515Y-4807508D01*
X2553515Y-4807508D02*
X2543991Y-4817031D01*
X2543991Y-4817031D02*
X2534467Y-4836079D01*
X2534467Y-4836079D02*
X2534467Y-4883698D01*
X2534467Y-4883698D02*
X2543991Y-4902746D01*
X2543991Y-4902746D02*
X2553515Y-4912270D01*
X2553515Y-4912270D02*
X2572563Y-4921793D01*
X2572563Y-4921793D02*
X2610658Y-4921793D01*
X2610658Y-4921793D02*
X2629705Y-4912270D01*
X2629705Y-4912270D02*
X2639229Y-4902746D01*
X2639229Y-4902746D02*
X2648753Y-4883698D01*
X2772563Y-4797984D02*
X2791610Y-4797984D01*
X2791610Y-4797984D02*
X2810658Y-4807508D01*
X2810658Y-4807508D02*
X2820182Y-4817031D01*
X2820182Y-4817031D02*
X2829705Y-4836079D01*
X2829705Y-4836079D02*
X2839229Y-4874174D01*
X2839229Y-4874174D02*
X2839229Y-4921793D01*
X2839229Y-4921793D02*
X2829705Y-4959889D01*
X2829705Y-4959889D02*
X2820182Y-4978936D01*
X2820182Y-4978936D02*
X2810658Y-4988460D01*
X2810658Y-4988460D02*
X2791610Y-4997984D01*
X2791610Y-4997984D02*
X2772563Y-4997984D01*
X2772563Y-4997984D02*
X2753515Y-4988460D01*
X2753515Y-4988460D02*
X2743991Y-4978936D01*
X2743991Y-4978936D02*
X2734467Y-4959889D01*
X2734467Y-4959889D02*
X2724944Y-4921793D01*
X2724944Y-4921793D02*
X2724944Y-4874174D01*
X2724944Y-4874174D02*
X2734467Y-4836079D01*
X2734467Y-4836079D02*
X2743991Y-4817031D01*
X2743991Y-4817031D02*
X2753515Y-4807508D01*
X2753515Y-4807508D02*
X2772563Y-4797984D01*
X2963039Y-4797984D02*
X2982086Y-4797984D01*
X2982086Y-4797984D02*
X3001134Y-4807508D01*
X3001134Y-4807508D02*
X3010658Y-4817031D01*
X3010658Y-4817031D02*
X3020182Y-4836079D01*
X3020182Y-4836079D02*
X3029705Y-4874174D01*
X3029705Y-4874174D02*
X3029705Y-4921793D01*
X3029705Y-4921793D02*
X3020182Y-4959889D01*
X3020182Y-4959889D02*
X3010658Y-4978936D01*
X3010658Y-4978936D02*
X3001134Y-4988460D01*
X3001134Y-4988460D02*
X2982086Y-4997984D01*
X2982086Y-4997984D02*
X2963039Y-4997984D01*
X2963039Y-4997984D02*
X2943991Y-4988460D01*
X2943991Y-4988460D02*
X2934467Y-4978936D01*
X2934467Y-4978936D02*
X2924943Y-4959889D01*
X2924943Y-4959889D02*
X2915420Y-4921793D01*
X2915420Y-4921793D02*
X2915420Y-4874174D01*
X2915420Y-4874174D02*
X2924943Y-4836079D01*
X2924943Y-4836079D02*
X2934467Y-4817031D01*
X2934467Y-4817031D02*
X2943991Y-4807508D01*
X2943991Y-4807508D02*
X2963039Y-4797984D01*
X3115420Y-4997984D02*
X3115420Y-4864650D01*
X3115420Y-4883698D02*
X3124943Y-4874174D01*
X3124943Y-4874174D02*
X3143991Y-4864650D01*
X3143991Y-4864650D02*
X3172563Y-4864650D01*
X3172563Y-4864650D02*
X3191610Y-4874174D01*
X3191610Y-4874174D02*
X3201134Y-4893222D01*
X3201134Y-4893222D02*
X3201134Y-4997984D01*
X3201134Y-4893222D02*
X3210658Y-4874174D01*
X3210658Y-4874174D02*
X3229705Y-4864650D01*
X3229705Y-4864650D02*
X3258277Y-4864650D01*
X3258277Y-4864650D02*
X3277324Y-4874174D01*
X3277324Y-4874174D02*
X3286848Y-4893222D01*
X3286848Y-4893222D02*
X3286848Y-4997984D01*
X3382086Y-4997984D02*
X3382086Y-4864650D01*
X3382086Y-4883698D02*
X3391610Y-4874174D01*
X3391610Y-4874174D02*
X3410658Y-4864650D01*
X3410658Y-4864650D02*
X3439229Y-4864650D01*
X3439229Y-4864650D02*
X3458277Y-4874174D01*
X3458277Y-4874174D02*
X3467801Y-4893222D01*
X3467801Y-4893222D02*
X3467801Y-4997984D01*
X3467801Y-4893222D02*
X3477324Y-4874174D01*
X3477324Y-4874174D02*
X3496372Y-4864650D01*
X3496372Y-4864650D02*
X3524943Y-4864650D01*
X3524943Y-4864650D02*
X3543991Y-4874174D01*
X3543991Y-4874174D02*
X3553515Y-4893222D01*
X3553515Y-4893222D02*
X3553515Y-4997984D01*
X3943991Y-4788460D02*
X3772563Y-5045603D01*
X4201134Y-4797984D02*
X4220182Y-4797984D01*
X4220182Y-4797984D02*
X4239229Y-4807508D01*
X4239229Y-4807508D02*
X4248753Y-4817031D01*
X4248753Y-4817031D02*
X4258277Y-4836079D01*
X4258277Y-4836079D02*
X4267801Y-4874174D01*
X4267801Y-4874174D02*
X4267801Y-4921793D01*
X4267801Y-4921793D02*
X4258277Y-4959889D01*
X4258277Y-4959889D02*
X4248753Y-4978936D01*
X4248753Y-4978936D02*
X4239229Y-4988460D01*
X4239229Y-4988460D02*
X4220182Y-4997984D01*
X4220182Y-4997984D02*
X4201134Y-4997984D01*
X4201134Y-4997984D02*
X4182086Y-4988460D01*
X4182086Y-4988460D02*
X4172563Y-4978936D01*
X4172563Y-4978936D02*
X4163039Y-4959889D01*
X4163039Y-4959889D02*
X4153515Y-4921793D01*
X4153515Y-4921793D02*
X4153515Y-4874174D01*
X4153515Y-4874174D02*
X4163039Y-4836079D01*
X4163039Y-4836079D02*
X4172563Y-4817031D01*
X4172563Y-4817031D02*
X4182086Y-4807508D01*
X4182086Y-4807508D02*
X4201134Y-4797984D01*
X4353515Y-4978936D02*
X4363039Y-4988460D01*
X4363039Y-4988460D02*
X4353515Y-4997984D01*
X4353515Y-4997984D02*
X4343991Y-4988460D01*
X4343991Y-4988460D02*
X4353515Y-4978936D01*
X4353515Y-4978936D02*
X4353515Y-4997984D01*
X4486848Y-4797984D02*
X4505896Y-4797984D01*
X4505896Y-4797984D02*
X4524944Y-4807508D01*
X4524944Y-4807508D02*
X4534468Y-4817031D01*
X4534468Y-4817031D02*
X4543991Y-4836079D01*
X4543991Y-4836079D02*
X4553515Y-4874174D01*
X4553515Y-4874174D02*
X4553515Y-4921793D01*
X4553515Y-4921793D02*
X4543991Y-4959889D01*
X4543991Y-4959889D02*
X4534468Y-4978936D01*
X4534468Y-4978936D02*
X4524944Y-4988460D01*
X4524944Y-4988460D02*
X4505896Y-4997984D01*
X4505896Y-4997984D02*
X4486848Y-4997984D01*
X4486848Y-4997984D02*
X4467801Y-4988460D01*
X4467801Y-4988460D02*
X4458277Y-4978936D01*
X4458277Y-4978936D02*
X4448753Y-4959889D01*
X4448753Y-4959889D02*
X4439229Y-4921793D01*
X4439229Y-4921793D02*
X4439229Y-4874174D01*
X4439229Y-4874174D02*
X4448753Y-4836079D01*
X4448753Y-4836079D02*
X4458277Y-4817031D01*
X4458277Y-4817031D02*
X4467801Y-4807508D01*
X4467801Y-4807508D02*
X4486848Y-4797984D01*
X4620182Y-4797984D02*
X4743991Y-4797984D01*
X4743991Y-4797984D02*
X4677325Y-4874174D01*
X4677325Y-4874174D02*
X4705896Y-4874174D01*
X4705896Y-4874174D02*
X4724944Y-4883698D01*
X4724944Y-4883698D02*
X4734468Y-4893222D01*
X4734468Y-4893222D02*
X4743991Y-4912270D01*
X4743991Y-4912270D02*
X4743991Y-4959889D01*
X4743991Y-4959889D02*
X4734468Y-4978936D01*
X4734468Y-4978936D02*
X4724944Y-4988460D01*
X4724944Y-4988460D02*
X4705896Y-4997984D01*
X4705896Y-4997984D02*
X4648753Y-4997984D01*
X4648753Y-4997984D02*
X4629706Y-4988460D01*
X4629706Y-4988460D02*
X4620182Y-4978936D01*
X4924944Y-4797984D02*
X4829706Y-4797984D01*
X4829706Y-4797984D02*
X4820182Y-4893222D01*
X4820182Y-4893222D02*
X4829706Y-4883698D01*
X4829706Y-4883698D02*
X4848753Y-4874174D01*
X4848753Y-4874174D02*
X4896372Y-4874174D01*
X4896372Y-4874174D02*
X4915420Y-4883698D01*
X4915420Y-4883698D02*
X4924944Y-4893222D01*
X4924944Y-4893222D02*
X4934468Y-4912270D01*
X4934468Y-4912270D02*
X4934468Y-4959889D01*
X4934468Y-4959889D02*
X4924944Y-4978936D01*
X4924944Y-4978936D02*
X4915420Y-4988460D01*
X4915420Y-4988460D02*
X4896372Y-4997984D01*
X4896372Y-4997984D02*
X4848753Y-4997984D01*
X4848753Y-4997984D02*
X4829706Y-4988460D01*
X4829706Y-4988460D02*
X4820182Y-4978936D01*
X5105896Y-4864650D02*
X5105896Y-4997984D01*
X5058277Y-4788460D02*
X5010658Y-4931317D01*
X5010658Y-4931317D02*
X5134468Y-4931317D01*
X5201134Y-4797984D02*
X5201134Y-4836079D01*
X5277325Y-4797984D02*
X5277325Y-4836079D01*
X5572563Y-5074174D02*
X5563039Y-5064650D01*
X5563039Y-5064650D02*
X5543991Y-5036079D01*
X5543991Y-5036079D02*
X5534468Y-5017031D01*
X5534468Y-5017031D02*
X5524944Y-4988460D01*
X5524944Y-4988460D02*
X5515420Y-4940841D01*
X5515420Y-4940841D02*
X5515420Y-4902746D01*
X5515420Y-4902746D02*
X5524944Y-4855127D01*
X5524944Y-4855127D02*
X5534468Y-4826555D01*
X5534468Y-4826555D02*
X5543991Y-4807508D01*
X5543991Y-4807508D02*
X5563039Y-4778936D01*
X5563039Y-4778936D02*
X5572563Y-4769412D01*
X5639229Y-4817031D02*
X5648753Y-4807508D01*
X5648753Y-4807508D02*
X5667801Y-4797984D01*
X5667801Y-4797984D02*
X5715420Y-4797984D01*
X5715420Y-4797984D02*
X5734468Y-4807508D01*
X5734468Y-4807508D02*
X5743991Y-4817031D01*
X5743991Y-4817031D02*
X5753515Y-4836079D01*
X5753515Y-4836079D02*
X5753515Y-4855127D01*
X5753515Y-4855127D02*
X5743991Y-4883698D01*
X5743991Y-4883698D02*
X5629706Y-4997984D01*
X5629706Y-4997984D02*
X5753515Y-4997984D01*
X5991610Y-4997984D02*
X5991610Y-4797984D01*
X6077325Y-4997984D02*
X6077325Y-4893222D01*
X6077325Y-4893222D02*
X6067801Y-4874174D01*
X6067801Y-4874174D02*
X6048753Y-4864650D01*
X6048753Y-4864650D02*
X6020182Y-4864650D01*
X6020182Y-4864650D02*
X6001134Y-4874174D01*
X6001134Y-4874174D02*
X5991610Y-4883698D01*
X6201134Y-4997984D02*
X6182087Y-4988460D01*
X6182087Y-4988460D02*
X6172563Y-4978936D01*
X6172563Y-4978936D02*
X6163039Y-4959889D01*
X6163039Y-4959889D02*
X6163039Y-4902746D01*
X6163039Y-4902746D02*
X6172563Y-4883698D01*
X6172563Y-4883698D02*
X6182087Y-4874174D01*
X6182087Y-4874174D02*
X6201134Y-4864650D01*
X6201134Y-4864650D02*
X6229706Y-4864650D01*
X6229706Y-4864650D02*
X6248753Y-4874174D01*
X6248753Y-4874174D02*
X6258277Y-4883698D01*
X6258277Y-4883698D02*
X6267801Y-4902746D01*
X6267801Y-4902746D02*
X6267801Y-4959889D01*
X6267801Y-4959889D02*
X6258277Y-4978936D01*
X6258277Y-4978936D02*
X6248753Y-4988460D01*
X6248753Y-4988460D02*
X6229706Y-4997984D01*
X6229706Y-4997984D02*
X6201134Y-4997984D01*
X6382087Y-4997984D02*
X6363039Y-4988460D01*
X6363039Y-4988460D02*
X6353515Y-4969412D01*
X6353515Y-4969412D02*
X6353515Y-4797984D01*
X6534468Y-4988460D02*
X6515420Y-4997984D01*
X6515420Y-4997984D02*
X6477325Y-4997984D01*
X6477325Y-4997984D02*
X6458277Y-4988460D01*
X6458277Y-4988460D02*
X6448753Y-4969412D01*
X6448753Y-4969412D02*
X6448753Y-4893222D01*
X6448753Y-4893222D02*
X6458277Y-4874174D01*
X6458277Y-4874174D02*
X6477325Y-4864650D01*
X6477325Y-4864650D02*
X6515420Y-4864650D01*
X6515420Y-4864650D02*
X6534468Y-4874174D01*
X6534468Y-4874174D02*
X6543991Y-4893222D01*
X6543991Y-4893222D02*
X6543991Y-4912270D01*
X6543991Y-4912270D02*
X6448753Y-4931317D01*
X6620182Y-4988460D02*
X6639230Y-4997984D01*
X6639230Y-4997984D02*
X6677325Y-4997984D01*
X6677325Y-4997984D02*
X6696372Y-4988460D01*
X6696372Y-4988460D02*
X6705896Y-4969412D01*
X6705896Y-4969412D02*
X6705896Y-4959889D01*
X6705896Y-4959889D02*
X6696372Y-4940841D01*
X6696372Y-4940841D02*
X6677325Y-4931317D01*
X6677325Y-4931317D02*
X6648753Y-4931317D01*
X6648753Y-4931317D02*
X6629706Y-4921793D01*
X6629706Y-4921793D02*
X6620182Y-4902746D01*
X6620182Y-4902746D02*
X6620182Y-4893222D01*
X6620182Y-4893222D02*
X6629706Y-4874174D01*
X6629706Y-4874174D02*
X6648753Y-4864650D01*
X6648753Y-4864650D02*
X6677325Y-4864650D01*
X6677325Y-4864650D02*
X6696372Y-4874174D01*
X6772563Y-5074174D02*
X6782087Y-5064650D01*
X6782087Y-5064650D02*
X6801134Y-5036079D01*
X6801134Y-5036079D02*
X6810658Y-5017031D01*
X6810658Y-5017031D02*
X6820182Y-4988460D01*
X6820182Y-4988460D02*
X6829706Y-4940841D01*
X6829706Y-4940841D02*
X6829706Y-4902746D01*
X6829706Y-4902746D02*
X6820182Y-4855127D01*
X6820182Y-4855127D02*
X6810658Y-4826555D01*
X6810658Y-4826555D02*
X6801134Y-4807508D01*
X6801134Y-4807508D02*
X6782087Y-4778936D01*
X6782087Y-4778936D02*
X6772563Y-4769412D01*
M02*
