%TF.GenerationSoftware,KiCad,Pcbnew,8.0.3-8.0.3-0~ubuntu24.04.1*%
%TF.CreationDate,2024-07-06T11:56:49-06:00*%
%TF.ProjectId,esp-prog,6573702d-7072-46f6-972e-6b696361645f,rev?*%
%TF.SameCoordinates,Original*%
%TF.FileFunction,Legend,Bot*%
%TF.FilePolarity,Positive*%
%FSLAX46Y46*%
G04 Gerber Fmt 4.6, Leading zero omitted, Abs format (unit mm)*
G04 Created by KiCad (PCBNEW 8.0.3-8.0.3-0~ubuntu24.04.1) date 2024-07-06 11:56:49*
%MOMM*%
%LPD*%
G01*
G04 APERTURE LIST*
G04 Aperture macros list*
%AMRoundRect*
0 Rectangle with rounded corners*
0 $1 Rounding radius*
0 $2 $3 $4 $5 $6 $7 $8 $9 X,Y pos of 4 corners*
0 Add a 4 corners polygon primitive as box body*
4,1,4,$2,$3,$4,$5,$6,$7,$8,$9,$2,$3,0*
0 Add four circle primitives for the rounded corners*
1,1,$1+$1,$2,$3*
1,1,$1+$1,$4,$5*
1,1,$1+$1,$6,$7*
1,1,$1+$1,$8,$9*
0 Add four rect primitives between the rounded corners*
20,1,$1+$1,$2,$3,$4,$5,0*
20,1,$1+$1,$4,$5,$6,$7,0*
20,1,$1+$1,$6,$7,$8,$9,0*
20,1,$1+$1,$8,$9,$2,$3,0*%
G04 Aperture macros list end*
%ADD10C,0.100000*%
%ADD11C,0.120000*%
%ADD12C,0.650000*%
%ADD13RoundRect,0.200000X0.275000X-0.200000X0.275000X0.200000X-0.275000X0.200000X-0.275000X-0.200000X0*%
%ADD14RoundRect,0.200000X0.200000X0.275000X-0.200000X0.275000X-0.200000X-0.275000X0.200000X-0.275000X0*%
%ADD15RoundRect,0.200000X-0.275000X0.200000X-0.275000X-0.200000X0.275000X-0.200000X0.275000X0.200000X0*%
G04 APERTURE END LIST*
D10*
X27064895Y-25166667D02*
X26683942Y-24900000D01*
X27064895Y-24709524D02*
X26264895Y-24709524D01*
X26264895Y-24709524D02*
X26264895Y-25014286D01*
X26264895Y-25014286D02*
X26302990Y-25090476D01*
X26302990Y-25090476D02*
X26341085Y-25128571D01*
X26341085Y-25128571D02*
X26417276Y-25166667D01*
X26417276Y-25166667D02*
X26531561Y-25166667D01*
X26531561Y-25166667D02*
X26607752Y-25128571D01*
X26607752Y-25128571D02*
X26645847Y-25090476D01*
X26645847Y-25090476D02*
X26683942Y-25014286D01*
X26683942Y-25014286D02*
X26683942Y-24709524D01*
X26264895Y-25890476D02*
X26264895Y-25509524D01*
X26264895Y-25509524D02*
X26645847Y-25471428D01*
X26645847Y-25471428D02*
X26607752Y-25509524D01*
X26607752Y-25509524D02*
X26569657Y-25585714D01*
X26569657Y-25585714D02*
X26569657Y-25776190D01*
X26569657Y-25776190D02*
X26607752Y-25852381D01*
X26607752Y-25852381D02*
X26645847Y-25890476D01*
X26645847Y-25890476D02*
X26722038Y-25928571D01*
X26722038Y-25928571D02*
X26912514Y-25928571D01*
X26912514Y-25928571D02*
X26988704Y-25890476D01*
X26988704Y-25890476D02*
X27026800Y-25852381D01*
X27026800Y-25852381D02*
X27064895Y-25776190D01*
X27064895Y-25776190D02*
X27064895Y-25585714D01*
X27064895Y-25585714D02*
X27026800Y-25509524D01*
X27026800Y-25509524D02*
X26988704Y-25471428D01*
X35233332Y-31814895D02*
X35499999Y-31433942D01*
X35690475Y-31814895D02*
X35690475Y-31014895D01*
X35690475Y-31014895D02*
X35385713Y-31014895D01*
X35385713Y-31014895D02*
X35309523Y-31052990D01*
X35309523Y-31052990D02*
X35271428Y-31091085D01*
X35271428Y-31091085D02*
X35233332Y-31167276D01*
X35233332Y-31167276D02*
X35233332Y-31281561D01*
X35233332Y-31281561D02*
X35271428Y-31357752D01*
X35271428Y-31357752D02*
X35309523Y-31395847D01*
X35309523Y-31395847D02*
X35385713Y-31433942D01*
X35385713Y-31433942D02*
X35690475Y-31433942D01*
X34471428Y-31814895D02*
X34928571Y-31814895D01*
X34699999Y-31814895D02*
X34699999Y-31014895D01*
X34699999Y-31014895D02*
X34776190Y-31129180D01*
X34776190Y-31129180D02*
X34852380Y-31205371D01*
X34852380Y-31205371D02*
X34928571Y-31243466D01*
X27114895Y-34616667D02*
X26733942Y-34350000D01*
X27114895Y-34159524D02*
X26314895Y-34159524D01*
X26314895Y-34159524D02*
X26314895Y-34464286D01*
X26314895Y-34464286D02*
X26352990Y-34540476D01*
X26352990Y-34540476D02*
X26391085Y-34578571D01*
X26391085Y-34578571D02*
X26467276Y-34616667D01*
X26467276Y-34616667D02*
X26581561Y-34616667D01*
X26581561Y-34616667D02*
X26657752Y-34578571D01*
X26657752Y-34578571D02*
X26695847Y-34540476D01*
X26695847Y-34540476D02*
X26733942Y-34464286D01*
X26733942Y-34464286D02*
X26733942Y-34159524D01*
X26581561Y-35302381D02*
X27114895Y-35302381D01*
X26276800Y-35111905D02*
X26848228Y-34921428D01*
X26848228Y-34921428D02*
X26848228Y-35416667D01*
D11*
%TO.C,R5*%
X27172500Y-27412742D02*
X27172500Y-27887258D01*
X26127500Y-27412742D02*
X26127500Y-27887258D01*
%TO.C,R1*%
X34912742Y-32327500D02*
X35387258Y-32327500D01*
X34912742Y-33372500D02*
X35387258Y-33372500D01*
%TO.C,R4*%
X26177500Y-32687258D02*
X26177500Y-32212742D01*
X27222500Y-32687258D02*
X27222500Y-32212742D01*
%TD*%
%LPC*%
D12*
%TO.C,J2*%
X25130000Y-27110000D03*
X25130000Y-32890000D03*
%TD*%
D13*
%TO.C,R5*%
X26650000Y-28475000D03*
X26650000Y-26825000D03*
%TD*%
D14*
%TO.C,R1*%
X35975000Y-32850000D03*
X34325000Y-32850000D03*
%TD*%
D15*
%TO.C,R4*%
X26700000Y-31625000D03*
X26700000Y-33275000D03*
%TD*%
%LPD*%
M02*
