%TF.GenerationSoftware,KiCad,Pcbnew,8.0.3-8.0.3-0~ubuntu24.04.1*%
%TF.CreationDate,2024-07-06T11:56:49-06:00*%
%TF.ProjectId,esp-prog,6573702d-7072-46f6-972e-6b696361645f,rev?*%
%TF.SameCoordinates,Original*%
%TF.FileFunction,Copper,L1,Top*%
%TF.FilePolarity,Positive*%
%FSLAX46Y46*%
G04 Gerber Fmt 4.6, Leading zero omitted, Abs format (unit mm)*
G04 Created by KiCad (PCBNEW 8.0.3-8.0.3-0~ubuntu24.04.1) date 2024-07-06 11:56:49*
%MOMM*%
%LPD*%
G01*
G04 APERTURE LIST*
G04 Aperture macros list*
%AMRoundRect*
0 Rectangle with rounded corners*
0 $1 Rounding radius*
0 $2 $3 $4 $5 $6 $7 $8 $9 X,Y pos of 4 corners*
0 Add a 4 corners polygon primitive as box body*
4,1,4,$2,$3,$4,$5,$6,$7,$8,$9,$2,$3,0*
0 Add four circle primitives for the rounded corners*
1,1,$1+$1,$2,$3*
1,1,$1+$1,$4,$5*
1,1,$1+$1,$6,$7*
1,1,$1+$1,$8,$9*
0 Add four rect primitives between the rounded corners*
20,1,$1+$1,$2,$3,$4,$5,0*
20,1,$1+$1,$4,$5,$6,$7,0*
20,1,$1+$1,$6,$7,$8,$9,0*
20,1,$1+$1,$8,$9,$2,$3,0*%
%AMOutline5P*
0 Free polygon, 5 corners , with rotation*
0 The origin of the aperture is its center*
0 number of corners: always 5*
0 $1 to $10 corner X, Y*
0 $11 Rotation angle, in degrees counterclockwise*
0 create outline with 5 corners*
4,1,5,$1,$2,$3,$4,$5,$6,$7,$8,$9,$10,$1,$2,$11*%
%AMOutline6P*
0 Free polygon, 6 corners , with rotation*
0 The origin of the aperture is its center*
0 number of corners: always 6*
0 $1 to $12 corner X, Y*
0 $13 Rotation angle, in degrees counterclockwise*
0 create outline with 6 corners*
4,1,6,$1,$2,$3,$4,$5,$6,$7,$8,$9,$10,$11,$12,$1,$2,$13*%
%AMOutline7P*
0 Free polygon, 7 corners , with rotation*
0 The origin of the aperture is its center*
0 number of corners: always 7*
0 $1 to $14 corner X, Y*
0 $15 Rotation angle, in degrees counterclockwise*
0 create outline with 7 corners*
4,1,7,$1,$2,$3,$4,$5,$6,$7,$8,$9,$10,$11,$12,$13,$14,$1,$2,$15*%
%AMOutline8P*
0 Free polygon, 8 corners , with rotation*
0 The origin of the aperture is its center*
0 number of corners: always 8*
0 $1 to $16 corner X, Y*
0 $17 Rotation angle, in degrees counterclockwise*
0 create outline with 8 corners*
4,1,8,$1,$2,$3,$4,$5,$6,$7,$8,$9,$10,$11,$12,$13,$14,$15,$16,$1,$2,$17*%
%AMFreePoly0*
4,1,13,0.900000,0.500000,2.600000,0.500000,2.600000,-0.500000,0.900000,-0.500000,0.400000,-1.000000,-0.400000,-1.000000,-0.900000,-0.500000,-2.600000,-0.500000,-2.600000,0.500000,-0.900000,0.500000,-0.400000,1.000000,0.400000,1.000000,0.900000,0.500000,0.900000,0.500000,$1*%
G04 Aperture macros list end*
%TA.AperFunction,ComponentPad*%
%ADD10C,1.200000*%
%TD*%
%TA.AperFunction,SMDPad,CuDef*%
%ADD11RoundRect,0.035000X0.865000X-0.315000X0.865000X0.315000X-0.865000X0.315000X-0.865000X-0.315000X0*%
%TD*%
%TA.AperFunction,SMDPad,CuDef*%
%ADD12Outline5P,-0.900000X1.100000X0.900000X1.100000X0.900000X-0.380000X0.180000X-1.100000X-0.900000X-1.100000X90.000000*%
%TD*%
%TA.AperFunction,SMDPad,CuDef*%
%ADD13Outline5P,-0.900000X1.100000X0.900000X1.100000X0.900000X-1.100000X-0.180000X-1.100000X-0.900000X-0.380000X90.000000*%
%TD*%
%TA.AperFunction,SMDPad,CuDef*%
%ADD14RoundRect,0.062500X-0.350000X-0.062500X0.350000X-0.062500X0.350000X0.062500X-0.350000X0.062500X0*%
%TD*%
%TA.AperFunction,SMDPad,CuDef*%
%ADD15RoundRect,0.062500X-0.062500X-0.350000X0.062500X-0.350000X0.062500X0.350000X-0.062500X0.350000X0*%
%TD*%
%TA.AperFunction,HeatsinkPad*%
%ADD16R,2.600000X2.600000*%
%TD*%
%TA.AperFunction,SMDPad,CuDef*%
%ADD17RoundRect,0.225000X-0.250000X0.225000X-0.250000X-0.225000X0.250000X-0.225000X0.250000X0.225000X0*%
%TD*%
%TA.AperFunction,SMDPad,CuDef*%
%ADD18RoundRect,0.200000X0.275000X-0.200000X0.275000X0.200000X-0.275000X0.200000X-0.275000X-0.200000X0*%
%TD*%
%TA.AperFunction,SMDPad,CuDef*%
%ADD19RoundRect,0.225000X0.250000X-0.225000X0.250000X0.225000X-0.250000X0.225000X-0.250000X-0.225000X0*%
%TD*%
%TA.AperFunction,SMDPad,CuDef*%
%ADD20RoundRect,0.150000X-0.587500X-0.150000X0.587500X-0.150000X0.587500X0.150000X-0.587500X0.150000X0*%
%TD*%
%TA.AperFunction,SMDPad,CuDef*%
%ADD21RoundRect,0.200000X-0.275000X0.200000X-0.275000X-0.200000X0.275000X-0.200000X0.275000X0.200000X0*%
%TD*%
%TA.AperFunction,SMDPad,CuDef*%
%ADD22RoundRect,0.175000X-0.175000X0.575000X-0.175000X-0.575000X0.175000X-0.575000X0.175000X0.575000X0*%
%TD*%
%TA.AperFunction,SMDPad,CuDef*%
%ADD23FreePoly0,270.000000*%
%TD*%
%TA.AperFunction,SMDPad,CuDef*%
%ADD24RoundRect,0.150000X-0.425000X0.150000X-0.425000X-0.150000X0.425000X-0.150000X0.425000X0.150000X0*%
%TD*%
%TA.AperFunction,SMDPad,CuDef*%
%ADD25RoundRect,0.075000X-0.500000X0.075000X-0.500000X-0.075000X0.500000X-0.075000X0.500000X0.075000X0*%
%TD*%
%TA.AperFunction,SMDPad,CuDef*%
%ADD26RoundRect,0.250000X-0.750000X0.840000X-0.750000X-0.840000X0.750000X-0.840000X0.750000X0.840000X0*%
%TD*%
%TA.AperFunction,ViaPad*%
%ADD27C,0.550000*%
%TD*%
%TA.AperFunction,Conductor*%
%ADD28C,0.508000*%
%TD*%
%TA.AperFunction,Conductor*%
%ADD29C,0.127000*%
%TD*%
%TA.AperFunction,Conductor*%
%ADD30C,0.254000*%
%TD*%
G04 APERTURE END LIST*
D10*
%TO.P,J1,*%
%TO.N,*%
X48750000Y-34800000D03*
X48750000Y-25200000D03*
D11*
%TO.P,J1,1,Pin_1*%
%TO.N,+5v0*%
X44650000Y-33750000D03*
%TO.P,J1,2,Pin_2*%
%TO.N,+3v3*%
X44650000Y-32500000D03*
%TO.P,J1,3,Pin_3*%
%TO.N,GND*%
X44650000Y-31250000D03*
%TO.P,J1,4,Pin_4*%
%TO.N,/ESP_EN*%
X44650000Y-29950000D03*
%TO.P,J1,5,Pin_5*%
%TO.N,/ESP_TXD*%
X44650000Y-28750000D03*
%TO.P,J1,6,Pin_6*%
%TO.N,/ESP_RXD*%
X44650000Y-27500000D03*
%TO.P,J1,7,Pin_7*%
%TO.N,/ESP_GPIO9*%
X44650000Y-26250000D03*
D12*
%TO.P,J1,M,Mech*%
%TO.N,GND*%
X47450000Y-36200000D03*
D13*
X47450000Y-23800000D03*
%TD*%
D14*
%TO.P,U1,1,~{RI}/CLK*%
%TO.N,unconnected-(U1-~{RI}{slash}CLK-Pad1)*%
X30212500Y-28737500D03*
%TO.P,U1,2,GND*%
%TO.N,GND*%
X30212500Y-29237500D03*
%TO.P,U1,3,D+*%
%TO.N,Net-(U1-D+)*%
X30212500Y-29737500D03*
%TO.P,U1,4,D-*%
%TO.N,Net-(U1-D-)*%
X30212500Y-30237500D03*
%TO.P,U1,5,VIO*%
%TO.N,+3v3*%
X30212500Y-30737500D03*
%TO.P,U1,6,VDD*%
X30212500Y-31237500D03*
D15*
%TO.P,U1,7,VREGIN*%
X30900000Y-31925000D03*
%TO.P,U1,8,VBUS*%
%TO.N,Net-(U1-VBUS)*%
X31400000Y-31925000D03*
%TO.P,U1,9,~{RST}*%
%TO.N,Net-(U1-~{RST})*%
X31900000Y-31925000D03*
%TO.P,U1,10,NC*%
%TO.N,unconnected-(U1-NC-Pad10)*%
X32400000Y-31925000D03*
%TO.P,U1,11,~{WAKEUP}/GPIO.3*%
%TO.N,unconnected-(U1-~{WAKEUP}{slash}GPIO.3-Pad11)*%
X32900000Y-31925000D03*
%TO.P,U1,12,RS485/GPIO.2*%
%TO.N,unconnected-(U1-RS485{slash}GPIO.2-Pad12)*%
X33400000Y-31925000D03*
D14*
%TO.P,U1,13,~{RXT}/GPIO.1*%
%TO.N,unconnected-(U1-~{RXT}{slash}GPIO.1-Pad13)*%
X34087500Y-31237500D03*
%TO.P,U1,14,~{TXT}/GPIO.0*%
%TO.N,unconnected-(U1-~{TXT}{slash}GPIO.0-Pad14)*%
X34087500Y-30737500D03*
%TO.P,U1,15,~{SUSPEND}*%
%TO.N,unconnected-(U1-~{SUSPEND}-Pad15)*%
X34087500Y-30237500D03*
%TO.P,U1,16,NC*%
%TO.N,unconnected-(U1-NC-Pad16)*%
X34087500Y-29737500D03*
%TO.P,U1,17,SUSPEND*%
%TO.N,unconnected-(U1-SUSPEND-Pad17)*%
X34087500Y-29237500D03*
%TO.P,U1,18,~{CTS}*%
%TO.N,unconnected-(U1-~{CTS}-Pad18)*%
X34087500Y-28737500D03*
D15*
%TO.P,U1,19,~{RTS}*%
%TO.N,/RTS*%
X33400000Y-28050000D03*
%TO.P,U1,20,RXD*%
%TO.N,/ESP_TXD*%
X32900000Y-28050000D03*
%TO.P,U1,21,TXD*%
%TO.N,/ESP_RXD*%
X32400000Y-28050000D03*
%TO.P,U1,22,~{DSR}*%
%TO.N,unconnected-(U1-~{DSR}-Pad22)*%
X31900000Y-28050000D03*
%TO.P,U1,23,~{DTR}*%
%TO.N,/DTR*%
X31400000Y-28050000D03*
%TO.P,U1,24,~{DCD}*%
%TO.N,unconnected-(U1-~{DCD}-Pad24)*%
X30900000Y-28050000D03*
D16*
%TO.P,U1,25,GND*%
%TO.N,GND*%
X32150000Y-29987500D03*
%TD*%
D17*
%TO.P,C3,1*%
%TO.N,+3v3*%
X28450000Y-34450000D03*
%TO.P,C3,2*%
%TO.N,GND*%
X28450000Y-36000000D03*
%TD*%
%TO.P,C6,1*%
%TO.N,Net-(U2-SSC)*%
X32150000Y-20975000D03*
%TO.P,C6,2*%
%TO.N,GND*%
X32150000Y-22525000D03*
%TD*%
D18*
%TO.P,R7,1*%
%TO.N,+3v3*%
X34850000Y-36050000D03*
%TO.P,R7,2*%
%TO.N,Net-(U1-~{RST})*%
X34850000Y-34400000D03*
%TD*%
D19*
%TO.P,C8,1*%
%TO.N,+5v0*%
X30550000Y-25575000D03*
%TO.P,C8,2*%
%TO.N,GND*%
X30550000Y-24025000D03*
%TD*%
D20*
%TO.P,Q3,1,B*%
%TO.N,Net-(Q3-B)*%
X39712500Y-27250000D03*
%TO.P,Q3,2,E*%
%TO.N,/DTR*%
X39712500Y-29150000D03*
%TO.P,Q3,3,C*%
%TO.N,/ESP_GPIO9*%
X41587500Y-28200000D03*
%TD*%
D21*
%TO.P,R3,1*%
%TO.N,Net-(Q3-B)*%
X37800000Y-27375000D03*
%TO.P,R3,2*%
%TO.N,/RTS*%
X37800000Y-29025000D03*
%TD*%
%TO.P,R2,1*%
%TO.N,Net-(Q2-B)*%
X37850000Y-31025000D03*
%TO.P,R2,2*%
%TO.N,/DTR*%
X37850000Y-32675000D03*
%TD*%
D22*
%TO.P,U2,1,EN*%
%TO.N,Net-(U2-EN)*%
X37000000Y-21350000D03*
D23*
%TO.P,U2,2,GND*%
%TO.N,GND*%
X35500000Y-23200000D03*
D22*
%TO.P,U2,3,SSC*%
%TO.N,Net-(U2-SSC)*%
X34000000Y-21350000D03*
%TO.P,U2,4,Vin*%
%TO.N,+5v0*%
X34000000Y-25050000D03*
%TO.P,U2,5,Vout*%
%TO.N,+3v3*%
X37000000Y-25050000D03*
%TD*%
D19*
%TO.P,C7,1*%
%TO.N,+5v0*%
X32150000Y-25575000D03*
%TO.P,C7,2*%
%TO.N,GND*%
X32150000Y-24025000D03*
%TD*%
D17*
%TO.P,C2,1*%
%TO.N,+3v3*%
X30050000Y-34450000D03*
%TO.P,C2,2*%
%TO.N,GND*%
X30050000Y-36000000D03*
%TD*%
D21*
%TO.P,R6,1*%
%TO.N,Net-(U1-VBUS)*%
X33250000Y-34400000D03*
%TO.P,R6,2*%
%TO.N,GND*%
X33250000Y-36050000D03*
%TD*%
D20*
%TO.P,Q2,1,B*%
%TO.N,Net-(Q2-B)*%
X39700000Y-30912500D03*
%TO.P,Q2,2,E*%
%TO.N,/RTS*%
X39700000Y-32812500D03*
%TO.P,Q2,3,C*%
%TO.N,/ESP_EN*%
X41575000Y-31862500D03*
%TD*%
D24*
%TO.P,J2,A1,GND*%
%TO.N,GND*%
X26405000Y-26800000D03*
%TO.P,J2,A4,VBUS*%
%TO.N,+5v0*%
X26405000Y-27600000D03*
D25*
%TO.P,J2,A5,CC1*%
%TO.N,Net-(J2-CC1)*%
X26405000Y-28750000D03*
%TO.P,J2,A6,D+*%
%TO.N,Net-(U1-D+)*%
X26405000Y-29750000D03*
%TO.P,J2,A7,D-*%
%TO.N,Net-(U1-D-)*%
X26405000Y-30250000D03*
%TO.P,J2,A8,SBU1*%
%TO.N,unconnected-(J2-SBU1-PadA8)*%
X26405000Y-31250000D03*
D24*
%TO.P,J2,A9,VBUS*%
%TO.N,+5v0*%
X26405000Y-32400000D03*
%TO.P,J2,A12,GND*%
%TO.N,GND*%
X26405000Y-33200000D03*
%TO.P,J2,B1,GND*%
X26405000Y-33200000D03*
%TO.P,J2,B4,VBUS*%
%TO.N,+5v0*%
X26405000Y-32400000D03*
D25*
%TO.P,J2,B5,CC2*%
%TO.N,Net-(J2-CC2)*%
X26405000Y-31750000D03*
%TO.P,J2,B6,D+*%
%TO.N,Net-(U1-D+)*%
X26405000Y-30750000D03*
%TO.P,J2,B7,D-*%
%TO.N,Net-(U1-D-)*%
X26405000Y-29250000D03*
%TO.P,J2,B8,SBU2*%
%TO.N,unconnected-(J2-SBU2-PadB8)*%
X26405000Y-28250000D03*
D24*
%TO.P,J2,B9,VBUS*%
%TO.N,+5v0*%
X26405000Y-27600000D03*
%TO.P,J2,B12,GND*%
%TO.N,GND*%
X26405000Y-26800000D03*
D26*
%TO.P,J2,S1,SHIELD*%
%TO.N,/J1_shield*%
X25630000Y-24890000D03*
X21700000Y-24890000D03*
X25630000Y-35110000D03*
X21700000Y-35110000D03*
%TD*%
D18*
%TO.P,R8,1*%
%TO.N,+5v0*%
X38950000Y-22625000D03*
%TO.P,R8,2*%
%TO.N,Net-(U2-EN)*%
X38950000Y-20975000D03*
%TD*%
D17*
%TO.P,C1,1*%
%TO.N,Net-(U1-VBUS)*%
X31650000Y-34450000D03*
%TO.P,C1,2*%
%TO.N,GND*%
X31650000Y-36000000D03*
%TD*%
D27*
%TO.N,GND*%
X27800000Y-26800000D03*
X31150000Y-22400000D03*
X32150000Y-30950000D03*
X30050000Y-36975000D03*
X35500000Y-23200000D03*
X32150000Y-29000000D03*
X27850000Y-33250009D03*
X43200000Y-31250000D03*
X35500000Y-25450000D03*
X36300000Y-34750000D03*
X31650000Y-36975000D03*
X47450000Y-36200000D03*
X36300000Y-31350000D03*
X31150000Y-30000000D03*
X47200000Y-31250000D03*
X47500000Y-23750000D03*
X35500000Y-20950000D03*
X32150000Y-29987500D03*
X33150000Y-30000000D03*
X27450000Y-36025000D03*
X29550000Y-24000000D03*
%TO.N,/DTR*%
X38900000Y-31900000D03*
X41400000Y-30850000D03*
%TO.N,+5v0*%
X45350000Y-24300000D03*
X43200000Y-33750000D03*
X37350000Y-23550000D03*
X34000000Y-25050000D03*
%TO.N,Net-(U1-VBUS)*%
X33250000Y-33500000D03*
%TO.N,Net-(J2-CC2)*%
X27850000Y-31650003D03*
%TO.N,Net-(J2-CC1)*%
X27822891Y-28450000D03*
%TO.N,+3v3*%
X44650000Y-25150000D03*
X43200000Y-32500000D03*
X35850000Y-36050000D03*
X29250000Y-33600000D03*
%TO.N,/ESP_RXD*%
X36800000Y-26900000D03*
X43100000Y-27550000D03*
%TO.N,Net-(U1-D-)*%
X28441954Y-29111860D03*
X28474500Y-30350000D03*
%TO.N,/ESP_TXD*%
X43100000Y-28750000D03*
X36799265Y-28250735D03*
%TO.N,Net-(U1-D+)*%
X27850000Y-30850000D03*
X27850000Y-29650000D03*
%TD*%
D28*
%TO.N,GND*%
X32150000Y-22425000D02*
X31175000Y-22425000D01*
D29*
X31650000Y-36000000D02*
X31650000Y-36975000D01*
D28*
X36300000Y-34750000D02*
X36300000Y-31350000D01*
X30550000Y-23975000D02*
X33125000Y-23975000D01*
D29*
X30212500Y-29237500D02*
X31400000Y-29237500D01*
D28*
X30550000Y-23975000D02*
X29575000Y-23975000D01*
D29*
X26652500Y-26800000D02*
X27800000Y-26800000D01*
X28500000Y-36050000D02*
X28450000Y-36000000D01*
D28*
X33125000Y-23975000D02*
X33900000Y-23200000D01*
X33125000Y-22425000D02*
X33900000Y-23200000D01*
D29*
X31175000Y-22425000D02*
X31150000Y-22400000D01*
X28450000Y-36000000D02*
X27475000Y-36000000D01*
D28*
X44650000Y-31250000D02*
X43200000Y-31250000D01*
D29*
X27799991Y-33200000D02*
X27850000Y-33250009D01*
D28*
X44650000Y-31250000D02*
X47200000Y-31250000D01*
D29*
X26652500Y-33200000D02*
X27799991Y-33200000D01*
D28*
X33900000Y-23200000D02*
X35500000Y-23200000D01*
D29*
X30050000Y-36000000D02*
X30050000Y-36975000D01*
X33250000Y-36050000D02*
X28500000Y-36050000D01*
X29575000Y-23975000D02*
X29550000Y-24000000D01*
D28*
X32150000Y-22425000D02*
X33125000Y-22425000D01*
D29*
X27475000Y-36000000D02*
X27450000Y-36025000D01*
X31400000Y-29237500D02*
X32150000Y-29987500D01*
%TO.N,Net-(Q2-B)*%
X39587500Y-31025000D02*
X39700000Y-30912500D01*
X37850000Y-31025000D02*
X39587500Y-31025000D01*
%TO.N,/ESP_EN*%
X41637500Y-31862500D02*
X41575000Y-31862500D01*
X43550000Y-29950000D02*
X41637500Y-31862500D01*
X44650000Y-29950000D02*
X43550000Y-29950000D01*
%TO.N,/RTS*%
X39700000Y-32345276D02*
X39700000Y-32812500D01*
X40250000Y-30050000D02*
X40800000Y-30600000D01*
X33400000Y-27550000D02*
X33450000Y-27500000D01*
X37800000Y-29025000D02*
X38825000Y-30050000D01*
X38825000Y-30050000D02*
X40250000Y-30050000D01*
X36725000Y-29025000D02*
X37800000Y-29025000D01*
X33450000Y-27500000D02*
X35200000Y-27500000D01*
X40800000Y-30600000D02*
X40800000Y-31245276D01*
X40800000Y-31245276D02*
X39700000Y-32345276D01*
X33400000Y-28050000D02*
X33400000Y-27550000D01*
X35200000Y-27500000D02*
X36725000Y-29025000D01*
%TO.N,Net-(Q3-B)*%
X39712500Y-27250000D02*
X37925000Y-27250000D01*
X37925000Y-27250000D02*
X37800000Y-27375000D01*
%TO.N,/DTR*%
X31400000Y-28050000D02*
X31400000Y-27623114D01*
X40400000Y-29150000D02*
X39712500Y-29150000D01*
X41400000Y-30150000D02*
X40400000Y-29150000D01*
X37850000Y-32675000D02*
X38125000Y-32675000D01*
X32723114Y-26300000D02*
X40200000Y-26300000D01*
X39700000Y-28640552D02*
X39700000Y-29137500D01*
X40200000Y-26300000D02*
X40800000Y-26900000D01*
X41400000Y-30850000D02*
X41400000Y-30150000D01*
X39700000Y-29137500D02*
X39712500Y-29150000D01*
X31400000Y-27623114D02*
X32723114Y-26300000D01*
X40800000Y-26900000D02*
X40800000Y-27540552D01*
X38125000Y-32675000D02*
X38900000Y-31900000D01*
X40800000Y-27540552D02*
X39700000Y-28640552D01*
%TO.N,/ESP_GPIO9*%
X44650000Y-26250000D02*
X42750000Y-26250000D01*
X42750000Y-26250000D02*
X41587500Y-27412500D01*
X41587500Y-27412500D02*
X41587500Y-28200000D01*
D28*
%TO.N,+5v0*%
X33400000Y-25050000D02*
X34000000Y-25050000D01*
X44600000Y-23550000D02*
X45350000Y-24300000D01*
X44650000Y-33750000D02*
X43200000Y-33750000D01*
X25100000Y-28200000D02*
X25100000Y-31800000D01*
D30*
X25700000Y-27600000D02*
X25100000Y-28200000D01*
X25100000Y-31800000D02*
X25700000Y-32400000D01*
D28*
X38950000Y-23550000D02*
X44600000Y-23550000D01*
D29*
X38950000Y-22625000D02*
X38950000Y-23550000D01*
D30*
X25700000Y-32400000D02*
X26405000Y-32400000D01*
D28*
X30550000Y-25525000D02*
X32925000Y-25525000D01*
D30*
X26405000Y-27600000D02*
X25700000Y-27600000D01*
D28*
X28475000Y-27600000D02*
X30550000Y-25525000D01*
X32925000Y-25525000D02*
X33400000Y-25050000D01*
X37350000Y-23550000D02*
X38950000Y-23550000D01*
X26652500Y-27600000D02*
X28475000Y-27600000D01*
D29*
%TO.N,Net-(U1-VBUS)*%
X31400000Y-31925000D02*
X31400000Y-33250000D01*
X33250000Y-34400000D02*
X33250000Y-33500000D01*
X31700000Y-34400000D02*
X31650000Y-34450000D01*
X31400000Y-33250000D02*
X31650000Y-33500000D01*
X33250000Y-34400000D02*
X31700000Y-34400000D01*
X31650000Y-33500000D02*
X31650000Y-34450000D01*
%TO.N,Net-(J2-CC2)*%
X26652500Y-31750000D02*
X27750003Y-31750000D01*
X27750003Y-31750000D02*
X27850000Y-31650003D01*
%TO.N,Net-(J2-CC1)*%
X26652500Y-28750000D02*
X27335785Y-28750000D01*
X27635785Y-28450000D02*
X27822891Y-28450000D01*
X27335785Y-28750000D02*
X27635785Y-28450000D01*
%TO.N,Net-(U1-~{RST})*%
X34850000Y-33450000D02*
X34150000Y-32750000D01*
X32298114Y-32750000D02*
X31900000Y-32351886D01*
X34850000Y-34075000D02*
X34850000Y-33450000D01*
X34150000Y-32750000D02*
X32298114Y-32750000D01*
X31900000Y-32351886D02*
X31900000Y-31925000D01*
D28*
%TO.N,+3v3*%
X29350000Y-32850000D02*
X29250000Y-32750000D01*
X44550000Y-25050000D02*
X37000000Y-25050000D01*
X34850000Y-36050000D02*
X38200000Y-36050000D01*
D29*
X30212500Y-30737500D02*
X29362500Y-30737500D01*
D28*
X29250000Y-30850000D02*
X29250000Y-32750000D01*
X29250000Y-32750000D02*
X29250000Y-34400000D01*
X43200000Y-32500000D02*
X43550000Y-32500000D01*
X43550000Y-32500000D02*
X44650000Y-32500000D01*
X30900000Y-32850000D02*
X29350000Y-32850000D01*
X44650000Y-25150000D02*
X44550000Y-25050000D01*
X29300000Y-34450000D02*
X30050000Y-34450000D01*
X28450000Y-34450000D02*
X29300000Y-34450000D01*
X41450000Y-32800000D02*
X42550000Y-32800000D01*
X29250000Y-34400000D02*
X29300000Y-34450000D01*
X42550000Y-32800000D02*
X42850000Y-32500000D01*
D29*
X29250000Y-31237500D02*
X30212500Y-31237500D01*
X30900000Y-32850000D02*
X30900000Y-31925000D01*
D28*
X42850000Y-32500000D02*
X43200000Y-32500000D01*
X38200000Y-36050000D02*
X41450000Y-32800000D01*
D29*
%TO.N,/ESP_RXD*%
X36600000Y-26700000D02*
X33000000Y-26700000D01*
X43150000Y-27500000D02*
X43100000Y-27550000D01*
X36800000Y-26900000D02*
X36600000Y-26700000D01*
X33000000Y-26700000D02*
X32400000Y-27300000D01*
X44650000Y-27500000D02*
X43150000Y-27500000D01*
X32400000Y-27300000D02*
X32400000Y-28050000D01*
%TO.N,Net-(U1-D-)*%
X28098529Y-29050000D02*
X28374265Y-29325736D01*
X28100000Y-30250000D02*
X30200000Y-30250000D01*
X28374265Y-29325736D02*
X28441954Y-29258047D01*
X28441954Y-29258047D02*
X28441954Y-29111860D01*
X27601471Y-29050000D02*
X28098529Y-29050000D01*
X27401471Y-29250000D02*
X27601471Y-29050000D01*
X26652500Y-30250000D02*
X28100000Y-30250000D01*
X28374500Y-30250000D02*
X28474500Y-30350000D01*
X28100000Y-30250000D02*
X28374500Y-30250000D01*
X30200000Y-30250000D02*
X30212500Y-30237500D01*
X26652500Y-29250000D02*
X27401471Y-29250000D01*
%TO.N,/ESP_TXD*%
X35648530Y-27100000D02*
X33200000Y-27100000D01*
X32900000Y-27400000D02*
X32900000Y-28050000D01*
X44650000Y-28750000D02*
X43100000Y-28750000D01*
X36799265Y-28250735D02*
X35648530Y-27100000D01*
X33200000Y-27100000D02*
X32900000Y-27400000D01*
%TO.N,Net-(U1-D+)*%
X27400000Y-29750000D02*
X27750000Y-29750000D01*
X26652500Y-29750000D02*
X27400000Y-29750000D01*
X27400000Y-29750000D02*
X30200000Y-29750000D01*
X26652500Y-30750000D02*
X27750000Y-30750000D01*
X27750000Y-30750000D02*
X27850000Y-30850000D01*
X27750000Y-29750000D02*
X27850000Y-29650000D01*
X30200000Y-29750000D02*
X30212500Y-29737500D01*
D30*
%TO.N,Net-(U2-SSC)*%
X33350000Y-21350000D02*
X34000000Y-21350000D01*
X32250000Y-20975000D02*
X32975000Y-20975000D01*
X32975000Y-20975000D02*
X33350000Y-21350000D01*
D29*
%TO.N,Net-(U2-EN)*%
X38075000Y-20975000D02*
X37700000Y-21350000D01*
X37700000Y-21350000D02*
X37000000Y-21350000D01*
X38950000Y-20975000D02*
X38075000Y-20975000D01*
%TD*%
%TA.AperFunction,Conductor*%
%TO.N,/J1_shield*%
G36*
X26793039Y-23619685D02*
G01*
X26838794Y-23672489D01*
X26850000Y-23724000D01*
X26850000Y-25875500D01*
X26830315Y-25942539D01*
X26777511Y-25988294D01*
X26726000Y-25999500D01*
X25914298Y-25999500D01*
X25877432Y-26002401D01*
X25877426Y-26002402D01*
X25719606Y-26048254D01*
X25719603Y-26048255D01*
X25578137Y-26131917D01*
X25578129Y-26131923D01*
X25546374Y-26163680D01*
X25485052Y-26197166D01*
X25458692Y-26200000D01*
X24550000Y-26200000D01*
X24550000Y-27631612D01*
X24530315Y-27698651D01*
X24517737Y-27714259D01*
X24517810Y-27714319D01*
X24513939Y-27719035D01*
X24431371Y-27842608D01*
X24374495Y-27979919D01*
X24374493Y-27979927D01*
X24345500Y-28125683D01*
X24345500Y-31874316D01*
X24374493Y-32020072D01*
X24374495Y-32020080D01*
X24431371Y-32157391D01*
X24513939Y-32280964D01*
X24517810Y-32285681D01*
X24516831Y-32286483D01*
X24547163Y-32342014D01*
X24550000Y-32368387D01*
X24550000Y-33800000D01*
X25458692Y-33800000D01*
X25525731Y-33819685D01*
X25546374Y-33836320D01*
X25578129Y-33868076D01*
X25578133Y-33868079D01*
X25578135Y-33868081D01*
X25719602Y-33951744D01*
X25761224Y-33963836D01*
X25877426Y-33997597D01*
X25877429Y-33997597D01*
X25877431Y-33997598D01*
X25914306Y-34000500D01*
X25914314Y-34000500D01*
X26726000Y-34000500D01*
X26793039Y-34020185D01*
X26838794Y-34072989D01*
X26850000Y-34124500D01*
X26850000Y-35486551D01*
X26830994Y-35552522D01*
X26746878Y-35686392D01*
X26689159Y-35851341D01*
X26689157Y-35851351D01*
X26669593Y-36024996D01*
X26669593Y-36025003D01*
X26689157Y-36198648D01*
X26689159Y-36198658D01*
X26701892Y-36235045D01*
X26705455Y-36304823D01*
X26670726Y-36365451D01*
X26608733Y-36397679D01*
X26584851Y-36400000D01*
X20624500Y-36400000D01*
X20557461Y-36380315D01*
X20511706Y-36327511D01*
X20500500Y-36276000D01*
X20500500Y-23724000D01*
X20520185Y-23656961D01*
X20572989Y-23611206D01*
X20624500Y-23600000D01*
X26726000Y-23600000D01*
X26793039Y-23619685D01*
G37*
%TD.AperFunction*%
%TD*%
M02*
