%TF.GenerationSoftware,KiCad,Pcbnew,8.0.3-8.0.3-0~ubuntu24.04.1*%
%TF.CreationDate,2024-07-06T11:56:49-06:00*%
%TF.ProjectId,esp-prog,6573702d-7072-46f6-972e-6b696361645f,rev?*%
%TF.SameCoordinates,Original*%
%TF.FileFunction,Soldermask,Top*%
%TF.FilePolarity,Negative*%
%FSLAX46Y46*%
G04 Gerber Fmt 4.6, Leading zero omitted, Abs format (unit mm)*
G04 Created by KiCad (PCBNEW 8.0.3-8.0.3-0~ubuntu24.04.1) date 2024-07-06 11:56:49*
%MOMM*%
%LPD*%
G01*
G04 APERTURE LIST*
G04 Aperture macros list*
%AMRoundRect*
0 Rectangle with rounded corners*
0 $1 Rounding radius*
0 $2 $3 $4 $5 $6 $7 $8 $9 X,Y pos of 4 corners*
0 Add a 4 corners polygon primitive as box body*
4,1,4,$2,$3,$4,$5,$6,$7,$8,$9,$2,$3,0*
0 Add four circle primitives for the rounded corners*
1,1,$1+$1,$2,$3*
1,1,$1+$1,$4,$5*
1,1,$1+$1,$6,$7*
1,1,$1+$1,$8,$9*
0 Add four rect primitives between the rounded corners*
20,1,$1+$1,$2,$3,$4,$5,0*
20,1,$1+$1,$4,$5,$6,$7,0*
20,1,$1+$1,$6,$7,$8,$9,0*
20,1,$1+$1,$8,$9,$2,$3,0*%
%AMOutline5P*
0 Free polygon, 5 corners , with rotation*
0 The origin of the aperture is its center*
0 number of corners: always 5*
0 $1 to $10 corner X, Y*
0 $11 Rotation angle, in degrees counterclockwise*
0 create outline with 5 corners*
4,1,5,$1,$2,$3,$4,$5,$6,$7,$8,$9,$10,$1,$2,$11*%
%AMOutline6P*
0 Free polygon, 6 corners , with rotation*
0 The origin of the aperture is its center*
0 number of corners: always 6*
0 $1 to $12 corner X, Y*
0 $13 Rotation angle, in degrees counterclockwise*
0 create outline with 6 corners*
4,1,6,$1,$2,$3,$4,$5,$6,$7,$8,$9,$10,$11,$12,$1,$2,$13*%
%AMOutline7P*
0 Free polygon, 7 corners , with rotation*
0 The origin of the aperture is its center*
0 number of corners: always 7*
0 $1 to $14 corner X, Y*
0 $15 Rotation angle, in degrees counterclockwise*
0 create outline with 7 corners*
4,1,7,$1,$2,$3,$4,$5,$6,$7,$8,$9,$10,$11,$12,$13,$14,$1,$2,$15*%
%AMOutline8P*
0 Free polygon, 8 corners , with rotation*
0 The origin of the aperture is its center*
0 number of corners: always 8*
0 $1 to $16 corner X, Y*
0 $17 Rotation angle, in degrees counterclockwise*
0 create outline with 8 corners*
4,1,8,$1,$2,$3,$4,$5,$6,$7,$8,$9,$10,$11,$12,$13,$14,$15,$16,$1,$2,$17*%
%AMFreePoly0*
4,1,13,0.900000,0.500000,2.600000,0.500000,2.600000,-0.500000,0.900000,-0.500000,0.400000,-1.000000,-0.400000,-1.000000,-0.900000,-0.500000,-2.600000,-0.500000,-2.600000,0.500000,-0.900000,0.500000,-0.400000,1.000000,0.400000,1.000000,0.900000,0.500000,0.900000,0.500000,$1*%
G04 Aperture macros list end*
%ADD10RoundRect,0.035000X0.865000X-0.315000X0.865000X0.315000X-0.865000X0.315000X-0.865000X-0.315000X0*%
%ADD11Outline5P,-0.900000X1.100000X0.900000X1.100000X0.900000X-0.380000X0.180000X-1.100000X-0.900000X-1.100000X90.000000*%
%ADD12Outline5P,-0.900000X1.100000X0.900000X1.100000X0.900000X-1.100000X-0.180000X-1.100000X-0.900000X-0.380000X90.000000*%
%ADD13RoundRect,0.062500X-0.350000X-0.062500X0.350000X-0.062500X0.350000X0.062500X-0.350000X0.062500X0*%
%ADD14RoundRect,0.062500X-0.062500X-0.350000X0.062500X-0.350000X0.062500X0.350000X-0.062500X0.350000X0*%
%ADD15R,2.600000X2.600000*%
%ADD16RoundRect,0.225000X-0.250000X0.225000X-0.250000X-0.225000X0.250000X-0.225000X0.250000X0.225000X0*%
%ADD17RoundRect,0.200000X0.275000X-0.200000X0.275000X0.200000X-0.275000X0.200000X-0.275000X-0.200000X0*%
%ADD18RoundRect,0.225000X0.250000X-0.225000X0.250000X0.225000X-0.250000X0.225000X-0.250000X-0.225000X0*%
%ADD19RoundRect,0.150000X-0.587500X-0.150000X0.587500X-0.150000X0.587500X0.150000X-0.587500X0.150000X0*%
%ADD20RoundRect,0.200000X-0.275000X0.200000X-0.275000X-0.200000X0.275000X-0.200000X0.275000X0.200000X0*%
%ADD21RoundRect,0.175000X-0.175000X0.575000X-0.175000X-0.575000X0.175000X-0.575000X0.175000X0.575000X0*%
%ADD22FreePoly0,270.000000*%
%ADD23C,0.650000*%
%ADD24RoundRect,0.150000X-0.425000X0.150000X-0.425000X-0.150000X0.425000X-0.150000X0.425000X0.150000X0*%
%ADD25RoundRect,0.075000X-0.500000X0.075000X-0.500000X-0.075000X0.500000X-0.075000X0.500000X0.075000X0*%
%ADD26RoundRect,0.250000X-0.750000X0.840000X-0.750000X-0.840000X0.750000X-0.840000X0.750000X0.840000X0*%
G04 APERTURE END LIST*
D10*
%TO.C,J1*%
X44650000Y-33750000D03*
X44650000Y-32500000D03*
X44650000Y-31250000D03*
X44650000Y-29950000D03*
X44650000Y-28750000D03*
X44650000Y-27500000D03*
X44650000Y-26250000D03*
D11*
X47450000Y-36200000D03*
D12*
X47450000Y-23800000D03*
%TD*%
D13*
%TO.C,U1*%
X30212500Y-28737500D03*
X30212500Y-29237500D03*
X30212500Y-29737500D03*
X30212500Y-30237500D03*
X30212500Y-30737500D03*
X30212500Y-31237500D03*
D14*
X30900000Y-31925000D03*
X31400000Y-31925000D03*
X31900000Y-31925000D03*
X32400000Y-31925000D03*
X32900000Y-31925000D03*
X33400000Y-31925000D03*
D13*
X34087500Y-31237500D03*
X34087500Y-30737500D03*
X34087500Y-30237500D03*
X34087500Y-29737500D03*
X34087500Y-29237500D03*
X34087500Y-28737500D03*
D14*
X33400000Y-28050000D03*
X32900000Y-28050000D03*
X32400000Y-28050000D03*
X31900000Y-28050000D03*
X31400000Y-28050000D03*
X30900000Y-28050000D03*
D15*
X32150000Y-29987500D03*
%TD*%
D16*
%TO.C,C3*%
X28450000Y-34450000D03*
X28450000Y-36000000D03*
%TD*%
%TO.C,C6*%
X32150000Y-20975000D03*
X32150000Y-22525000D03*
%TD*%
D17*
%TO.C,R7*%
X34850000Y-36050000D03*
X34850000Y-34400000D03*
%TD*%
D18*
%TO.C,C8*%
X30550000Y-25575000D03*
X30550000Y-24025000D03*
%TD*%
D19*
%TO.C,Q3*%
X39712500Y-27250000D03*
X39712500Y-29150000D03*
X41587500Y-28200000D03*
%TD*%
D20*
%TO.C,R3*%
X37800000Y-27375000D03*
X37800000Y-29025000D03*
%TD*%
%TO.C,R2*%
X37850000Y-31025000D03*
X37850000Y-32675000D03*
%TD*%
D21*
%TO.C,U2*%
X37000000Y-21350000D03*
D22*
X35500000Y-23200000D03*
D21*
X34000000Y-21350000D03*
X34000000Y-25050000D03*
X37000000Y-25050000D03*
%TD*%
D18*
%TO.C,C7*%
X32150000Y-25575000D03*
X32150000Y-24025000D03*
%TD*%
D16*
%TO.C,C2*%
X30050000Y-34450000D03*
X30050000Y-36000000D03*
%TD*%
D20*
%TO.C,R6*%
X33250000Y-34400000D03*
X33250000Y-36050000D03*
%TD*%
D19*
%TO.C,Q2*%
X39700000Y-30912500D03*
X39700000Y-32812500D03*
X41575000Y-31862500D03*
%TD*%
D23*
%TO.C,J2*%
X25130000Y-27110000D03*
X25130000Y-32890000D03*
D24*
X26405000Y-26800000D03*
X26405000Y-27600000D03*
D25*
X26405000Y-28750000D03*
X26405000Y-29750000D03*
X26405000Y-30250000D03*
X26405000Y-31250000D03*
D24*
X26405000Y-32400000D03*
X26405000Y-33200000D03*
X26405000Y-33200000D03*
X26405000Y-32400000D03*
D25*
X26405000Y-31750000D03*
X26405000Y-30750000D03*
X26405000Y-29250000D03*
X26405000Y-28250000D03*
D24*
X26405000Y-27600000D03*
X26405000Y-26800000D03*
D26*
X25630000Y-24890000D03*
X21700000Y-24890000D03*
X25630000Y-35110000D03*
X21700000Y-35110000D03*
%TD*%
D17*
%TO.C,R8*%
X38950000Y-22625000D03*
X38950000Y-20975000D03*
%TD*%
D16*
%TO.C,C1*%
X31650000Y-34450000D03*
X31650000Y-36000000D03*
%TD*%
M02*
