%TF.GenerationSoftware,KiCad,Pcbnew,8.0.3-8.0.3-0~ubuntu24.04.1*%
%TF.CreationDate,2024-07-06T11:56:43-06:00*%
%TF.ProjectId,esp-prog,6573702d-7072-46f6-972e-6b696361645f,rev?*%
%TF.SameCoordinates,Original*%
%TF.FileFunction,Drillmap*%
%TF.FilePolarity,Positive*%
%FSLAX45Y45*%
G04 Gerber Fmt 4.5, Leading zero omitted, Abs format (unit mm)*
G04 Created by KiCad (PCBNEW 8.0.3-8.0.3-0~ubuntu24.04.1) date 2024-07-06 11:56:43*
%MOMM*%
%LPD*%
G01*
G04 APERTURE LIST*
%ADD10C,0.050000*%
%ADD11C,0.200000*%
%ADD12C,0.100000*%
G04 APERTURE END LIST*
D10*
X2000000Y-2000000D02*
X5000000Y-2000000D01*
X5000000Y-4000000D01*
X2000000Y-4000000D01*
X2000000Y-2000000D01*
D11*
D12*
X2480500Y-2678500D02*
X2545500Y-2743500D01*
X2545500Y-2678500D02*
X2480500Y-2743500D01*
X2480500Y-3256500D02*
X2545500Y-3321500D01*
X2545500Y-3256500D02*
X2480500Y-3321500D01*
D11*
X2258277Y-4313984D02*
X2258277Y-4113984D01*
X2258277Y-4113984D02*
X2305896Y-4113984D01*
X2305896Y-4113984D02*
X2334467Y-4123508D01*
X2334467Y-4123508D02*
X2353515Y-4142555D01*
X2353515Y-4142555D02*
X2363039Y-4161603D01*
X2363039Y-4161603D02*
X2372563Y-4199698D01*
X2372563Y-4199698D02*
X2372563Y-4228270D01*
X2372563Y-4228270D02*
X2363039Y-4266365D01*
X2363039Y-4266365D02*
X2353515Y-4285412D01*
X2353515Y-4285412D02*
X2334467Y-4304460D01*
X2334467Y-4304460D02*
X2305896Y-4313984D01*
X2305896Y-4313984D02*
X2258277Y-4313984D01*
X2458277Y-4313984D02*
X2458277Y-4180650D01*
X2458277Y-4218746D02*
X2467801Y-4199698D01*
X2467801Y-4199698D02*
X2477324Y-4190174D01*
X2477324Y-4190174D02*
X2496372Y-4180650D01*
X2496372Y-4180650D02*
X2515420Y-4180650D01*
X2582086Y-4313984D02*
X2582086Y-4180650D01*
X2582086Y-4113984D02*
X2572563Y-4123508D01*
X2572563Y-4123508D02*
X2582086Y-4133031D01*
X2582086Y-4133031D02*
X2591610Y-4123508D01*
X2591610Y-4123508D02*
X2582086Y-4113984D01*
X2582086Y-4113984D02*
X2582086Y-4133031D01*
X2705896Y-4313984D02*
X2686848Y-4304460D01*
X2686848Y-4304460D02*
X2677324Y-4285412D01*
X2677324Y-4285412D02*
X2677324Y-4113984D01*
X2810658Y-4313984D02*
X2791610Y-4304460D01*
X2791610Y-4304460D02*
X2782086Y-4285412D01*
X2782086Y-4285412D02*
X2782086Y-4113984D01*
X3039229Y-4313984D02*
X3039229Y-4113984D01*
X3039229Y-4113984D02*
X3105896Y-4256841D01*
X3105896Y-4256841D02*
X3172562Y-4113984D01*
X3172562Y-4113984D02*
X3172562Y-4313984D01*
X3353515Y-4313984D02*
X3353515Y-4209222D01*
X3353515Y-4209222D02*
X3343991Y-4190174D01*
X3343991Y-4190174D02*
X3324943Y-4180650D01*
X3324943Y-4180650D02*
X3286848Y-4180650D01*
X3286848Y-4180650D02*
X3267801Y-4190174D01*
X3353515Y-4304460D02*
X3334467Y-4313984D01*
X3334467Y-4313984D02*
X3286848Y-4313984D01*
X3286848Y-4313984D02*
X3267801Y-4304460D01*
X3267801Y-4304460D02*
X3258277Y-4285412D01*
X3258277Y-4285412D02*
X3258277Y-4266365D01*
X3258277Y-4266365D02*
X3267801Y-4247317D01*
X3267801Y-4247317D02*
X3286848Y-4237793D01*
X3286848Y-4237793D02*
X3334467Y-4237793D01*
X3334467Y-4237793D02*
X3353515Y-4228270D01*
X3448753Y-4180650D02*
X3448753Y-4380650D01*
X3448753Y-4190174D02*
X3467801Y-4180650D01*
X3467801Y-4180650D02*
X3505896Y-4180650D01*
X3505896Y-4180650D02*
X3524943Y-4190174D01*
X3524943Y-4190174D02*
X3534467Y-4199698D01*
X3534467Y-4199698D02*
X3543991Y-4218746D01*
X3543991Y-4218746D02*
X3543991Y-4275889D01*
X3543991Y-4275889D02*
X3534467Y-4294936D01*
X3534467Y-4294936D02*
X3524943Y-4304460D01*
X3524943Y-4304460D02*
X3505896Y-4313984D01*
X3505896Y-4313984D02*
X3467801Y-4313984D01*
X3467801Y-4313984D02*
X3448753Y-4304460D01*
X3629705Y-4294936D02*
X3639229Y-4304460D01*
X3639229Y-4304460D02*
X3629705Y-4313984D01*
X3629705Y-4313984D02*
X3620182Y-4304460D01*
X3620182Y-4304460D02*
X3629705Y-4294936D01*
X3629705Y-4294936D02*
X3629705Y-4313984D01*
X3629705Y-4190174D02*
X3639229Y-4199698D01*
X3639229Y-4199698D02*
X3629705Y-4209222D01*
X3629705Y-4209222D02*
X3620182Y-4199698D01*
X3620182Y-4199698D02*
X3629705Y-4190174D01*
X3629705Y-4190174D02*
X3629705Y-4209222D01*
D12*
X1932500Y-4610000D02*
X1997500Y-4675000D01*
X1997500Y-4610000D02*
X1932500Y-4675000D01*
D11*
X2296372Y-4533984D02*
X2315420Y-4533984D01*
X2315420Y-4533984D02*
X2334467Y-4543508D01*
X2334467Y-4543508D02*
X2343991Y-4553031D01*
X2343991Y-4553031D02*
X2353515Y-4572079D01*
X2353515Y-4572079D02*
X2363039Y-4610174D01*
X2363039Y-4610174D02*
X2363039Y-4657793D01*
X2363039Y-4657793D02*
X2353515Y-4695889D01*
X2353515Y-4695889D02*
X2343991Y-4714936D01*
X2343991Y-4714936D02*
X2334467Y-4724460D01*
X2334467Y-4724460D02*
X2315420Y-4733984D01*
X2315420Y-4733984D02*
X2296372Y-4733984D01*
X2296372Y-4733984D02*
X2277324Y-4724460D01*
X2277324Y-4724460D02*
X2267801Y-4714936D01*
X2267801Y-4714936D02*
X2258277Y-4695889D01*
X2258277Y-4695889D02*
X2248753Y-4657793D01*
X2248753Y-4657793D02*
X2248753Y-4610174D01*
X2248753Y-4610174D02*
X2258277Y-4572079D01*
X2258277Y-4572079D02*
X2267801Y-4553031D01*
X2267801Y-4553031D02*
X2277324Y-4543508D01*
X2277324Y-4543508D02*
X2296372Y-4533984D01*
X2448753Y-4714936D02*
X2458277Y-4724460D01*
X2458277Y-4724460D02*
X2448753Y-4733984D01*
X2448753Y-4733984D02*
X2439229Y-4724460D01*
X2439229Y-4724460D02*
X2448753Y-4714936D01*
X2448753Y-4714936D02*
X2448753Y-4733984D01*
X2629705Y-4533984D02*
X2591610Y-4533984D01*
X2591610Y-4533984D02*
X2572563Y-4543508D01*
X2572563Y-4543508D02*
X2563039Y-4553031D01*
X2563039Y-4553031D02*
X2543991Y-4581603D01*
X2543991Y-4581603D02*
X2534467Y-4619698D01*
X2534467Y-4619698D02*
X2534467Y-4695889D01*
X2534467Y-4695889D02*
X2543991Y-4714936D01*
X2543991Y-4714936D02*
X2553515Y-4724460D01*
X2553515Y-4724460D02*
X2572563Y-4733984D01*
X2572563Y-4733984D02*
X2610658Y-4733984D01*
X2610658Y-4733984D02*
X2629705Y-4724460D01*
X2629705Y-4724460D02*
X2639229Y-4714936D01*
X2639229Y-4714936D02*
X2648753Y-4695889D01*
X2648753Y-4695889D02*
X2648753Y-4648270D01*
X2648753Y-4648270D02*
X2639229Y-4629222D01*
X2639229Y-4629222D02*
X2629705Y-4619698D01*
X2629705Y-4619698D02*
X2610658Y-4610174D01*
X2610658Y-4610174D02*
X2572563Y-4610174D01*
X2572563Y-4610174D02*
X2553515Y-4619698D01*
X2553515Y-4619698D02*
X2543991Y-4629222D01*
X2543991Y-4629222D02*
X2534467Y-4648270D01*
X2829705Y-4533984D02*
X2734467Y-4533984D01*
X2734467Y-4533984D02*
X2724944Y-4629222D01*
X2724944Y-4629222D02*
X2734467Y-4619698D01*
X2734467Y-4619698D02*
X2753515Y-4610174D01*
X2753515Y-4610174D02*
X2801134Y-4610174D01*
X2801134Y-4610174D02*
X2820182Y-4619698D01*
X2820182Y-4619698D02*
X2829705Y-4629222D01*
X2829705Y-4629222D02*
X2839229Y-4648270D01*
X2839229Y-4648270D02*
X2839229Y-4695889D01*
X2839229Y-4695889D02*
X2829705Y-4714936D01*
X2829705Y-4714936D02*
X2820182Y-4724460D01*
X2820182Y-4724460D02*
X2801134Y-4733984D01*
X2801134Y-4733984D02*
X2753515Y-4733984D01*
X2753515Y-4733984D02*
X2734467Y-4724460D01*
X2734467Y-4724460D02*
X2724944Y-4714936D01*
X2963039Y-4533984D02*
X2982086Y-4533984D01*
X2982086Y-4533984D02*
X3001134Y-4543508D01*
X3001134Y-4543508D02*
X3010658Y-4553031D01*
X3010658Y-4553031D02*
X3020182Y-4572079D01*
X3020182Y-4572079D02*
X3029705Y-4610174D01*
X3029705Y-4610174D02*
X3029705Y-4657793D01*
X3029705Y-4657793D02*
X3020182Y-4695889D01*
X3020182Y-4695889D02*
X3010658Y-4714936D01*
X3010658Y-4714936D02*
X3001134Y-4724460D01*
X3001134Y-4724460D02*
X2982086Y-4733984D01*
X2982086Y-4733984D02*
X2963039Y-4733984D01*
X2963039Y-4733984D02*
X2943991Y-4724460D01*
X2943991Y-4724460D02*
X2934467Y-4714936D01*
X2934467Y-4714936D02*
X2924943Y-4695889D01*
X2924943Y-4695889D02*
X2915420Y-4657793D01*
X2915420Y-4657793D02*
X2915420Y-4610174D01*
X2915420Y-4610174D02*
X2924943Y-4572079D01*
X2924943Y-4572079D02*
X2934467Y-4553031D01*
X2934467Y-4553031D02*
X2943991Y-4543508D01*
X2943991Y-4543508D02*
X2963039Y-4533984D01*
X3115420Y-4733984D02*
X3115420Y-4600650D01*
X3115420Y-4619698D02*
X3124943Y-4610174D01*
X3124943Y-4610174D02*
X3143991Y-4600650D01*
X3143991Y-4600650D02*
X3172563Y-4600650D01*
X3172563Y-4600650D02*
X3191610Y-4610174D01*
X3191610Y-4610174D02*
X3201134Y-4629222D01*
X3201134Y-4629222D02*
X3201134Y-4733984D01*
X3201134Y-4629222D02*
X3210658Y-4610174D01*
X3210658Y-4610174D02*
X3229705Y-4600650D01*
X3229705Y-4600650D02*
X3258277Y-4600650D01*
X3258277Y-4600650D02*
X3277324Y-4610174D01*
X3277324Y-4610174D02*
X3286848Y-4629222D01*
X3286848Y-4629222D02*
X3286848Y-4733984D01*
X3382086Y-4733984D02*
X3382086Y-4600650D01*
X3382086Y-4619698D02*
X3391610Y-4610174D01*
X3391610Y-4610174D02*
X3410658Y-4600650D01*
X3410658Y-4600650D02*
X3439229Y-4600650D01*
X3439229Y-4600650D02*
X3458277Y-4610174D01*
X3458277Y-4610174D02*
X3467801Y-4629222D01*
X3467801Y-4629222D02*
X3467801Y-4733984D01*
X3467801Y-4629222D02*
X3477324Y-4610174D01*
X3477324Y-4610174D02*
X3496372Y-4600650D01*
X3496372Y-4600650D02*
X3524943Y-4600650D01*
X3524943Y-4600650D02*
X3543991Y-4610174D01*
X3543991Y-4610174D02*
X3553515Y-4629222D01*
X3553515Y-4629222D02*
X3553515Y-4733984D01*
X3943991Y-4524460D02*
X3772563Y-4781603D01*
X4201134Y-4533984D02*
X4220182Y-4533984D01*
X4220182Y-4533984D02*
X4239229Y-4543508D01*
X4239229Y-4543508D02*
X4248753Y-4553031D01*
X4248753Y-4553031D02*
X4258277Y-4572079D01*
X4258277Y-4572079D02*
X4267801Y-4610174D01*
X4267801Y-4610174D02*
X4267801Y-4657793D01*
X4267801Y-4657793D02*
X4258277Y-4695889D01*
X4258277Y-4695889D02*
X4248753Y-4714936D01*
X4248753Y-4714936D02*
X4239229Y-4724460D01*
X4239229Y-4724460D02*
X4220182Y-4733984D01*
X4220182Y-4733984D02*
X4201134Y-4733984D01*
X4201134Y-4733984D02*
X4182086Y-4724460D01*
X4182086Y-4724460D02*
X4172563Y-4714936D01*
X4172563Y-4714936D02*
X4163039Y-4695889D01*
X4163039Y-4695889D02*
X4153515Y-4657793D01*
X4153515Y-4657793D02*
X4153515Y-4610174D01*
X4153515Y-4610174D02*
X4163039Y-4572079D01*
X4163039Y-4572079D02*
X4172563Y-4553031D01*
X4172563Y-4553031D02*
X4182086Y-4543508D01*
X4182086Y-4543508D02*
X4201134Y-4533984D01*
X4353515Y-4714936D02*
X4363039Y-4724460D01*
X4363039Y-4724460D02*
X4353515Y-4733984D01*
X4353515Y-4733984D02*
X4343991Y-4724460D01*
X4343991Y-4724460D02*
X4353515Y-4714936D01*
X4353515Y-4714936D02*
X4353515Y-4733984D01*
X4486848Y-4533984D02*
X4505896Y-4533984D01*
X4505896Y-4533984D02*
X4524944Y-4543508D01*
X4524944Y-4543508D02*
X4534468Y-4553031D01*
X4534468Y-4553031D02*
X4543991Y-4572079D01*
X4543991Y-4572079D02*
X4553515Y-4610174D01*
X4553515Y-4610174D02*
X4553515Y-4657793D01*
X4553515Y-4657793D02*
X4543991Y-4695889D01*
X4543991Y-4695889D02*
X4534468Y-4714936D01*
X4534468Y-4714936D02*
X4524944Y-4724460D01*
X4524944Y-4724460D02*
X4505896Y-4733984D01*
X4505896Y-4733984D02*
X4486848Y-4733984D01*
X4486848Y-4733984D02*
X4467801Y-4724460D01*
X4467801Y-4724460D02*
X4458277Y-4714936D01*
X4458277Y-4714936D02*
X4448753Y-4695889D01*
X4448753Y-4695889D02*
X4439229Y-4657793D01*
X4439229Y-4657793D02*
X4439229Y-4610174D01*
X4439229Y-4610174D02*
X4448753Y-4572079D01*
X4448753Y-4572079D02*
X4458277Y-4553031D01*
X4458277Y-4553031D02*
X4467801Y-4543508D01*
X4467801Y-4543508D02*
X4486848Y-4533984D01*
X4629706Y-4553031D02*
X4639229Y-4543508D01*
X4639229Y-4543508D02*
X4658277Y-4533984D01*
X4658277Y-4533984D02*
X4705896Y-4533984D01*
X4705896Y-4533984D02*
X4724944Y-4543508D01*
X4724944Y-4543508D02*
X4734468Y-4553031D01*
X4734468Y-4553031D02*
X4743991Y-4572079D01*
X4743991Y-4572079D02*
X4743991Y-4591127D01*
X4743991Y-4591127D02*
X4734468Y-4619698D01*
X4734468Y-4619698D02*
X4620182Y-4733984D01*
X4620182Y-4733984D02*
X4743991Y-4733984D01*
X4924944Y-4533984D02*
X4829706Y-4533984D01*
X4829706Y-4533984D02*
X4820182Y-4629222D01*
X4820182Y-4629222D02*
X4829706Y-4619698D01*
X4829706Y-4619698D02*
X4848753Y-4610174D01*
X4848753Y-4610174D02*
X4896372Y-4610174D01*
X4896372Y-4610174D02*
X4915420Y-4619698D01*
X4915420Y-4619698D02*
X4924944Y-4629222D01*
X4924944Y-4629222D02*
X4934468Y-4648270D01*
X4934468Y-4648270D02*
X4934468Y-4695889D01*
X4934468Y-4695889D02*
X4924944Y-4714936D01*
X4924944Y-4714936D02*
X4915420Y-4724460D01*
X4915420Y-4724460D02*
X4896372Y-4733984D01*
X4896372Y-4733984D02*
X4848753Y-4733984D01*
X4848753Y-4733984D02*
X4829706Y-4724460D01*
X4829706Y-4724460D02*
X4820182Y-4714936D01*
X5105896Y-4533984D02*
X5067801Y-4533984D01*
X5067801Y-4533984D02*
X5048753Y-4543508D01*
X5048753Y-4543508D02*
X5039229Y-4553031D01*
X5039229Y-4553031D02*
X5020182Y-4581603D01*
X5020182Y-4581603D02*
X5010658Y-4619698D01*
X5010658Y-4619698D02*
X5010658Y-4695889D01*
X5010658Y-4695889D02*
X5020182Y-4714936D01*
X5020182Y-4714936D02*
X5029706Y-4724460D01*
X5029706Y-4724460D02*
X5048753Y-4733984D01*
X5048753Y-4733984D02*
X5086849Y-4733984D01*
X5086849Y-4733984D02*
X5105896Y-4724460D01*
X5105896Y-4724460D02*
X5115420Y-4714936D01*
X5115420Y-4714936D02*
X5124944Y-4695889D01*
X5124944Y-4695889D02*
X5124944Y-4648270D01*
X5124944Y-4648270D02*
X5115420Y-4629222D01*
X5115420Y-4629222D02*
X5105896Y-4619698D01*
X5105896Y-4619698D02*
X5086849Y-4610174D01*
X5086849Y-4610174D02*
X5048753Y-4610174D01*
X5048753Y-4610174D02*
X5029706Y-4619698D01*
X5029706Y-4619698D02*
X5020182Y-4629222D01*
X5020182Y-4629222D02*
X5010658Y-4648270D01*
X5201134Y-4533984D02*
X5201134Y-4572079D01*
X5277325Y-4533984D02*
X5277325Y-4572079D01*
X5572563Y-4810174D02*
X5563039Y-4800650D01*
X5563039Y-4800650D02*
X5543991Y-4772079D01*
X5543991Y-4772079D02*
X5534468Y-4753031D01*
X5534468Y-4753031D02*
X5524944Y-4724460D01*
X5524944Y-4724460D02*
X5515420Y-4676841D01*
X5515420Y-4676841D02*
X5515420Y-4638746D01*
X5515420Y-4638746D02*
X5524944Y-4591127D01*
X5524944Y-4591127D02*
X5534468Y-4562555D01*
X5534468Y-4562555D02*
X5543991Y-4543508D01*
X5543991Y-4543508D02*
X5563039Y-4514936D01*
X5563039Y-4514936D02*
X5572563Y-4505412D01*
X5639229Y-4553031D02*
X5648753Y-4543508D01*
X5648753Y-4543508D02*
X5667801Y-4533984D01*
X5667801Y-4533984D02*
X5715420Y-4533984D01*
X5715420Y-4533984D02*
X5734468Y-4543508D01*
X5734468Y-4543508D02*
X5743991Y-4553031D01*
X5743991Y-4553031D02*
X5753515Y-4572079D01*
X5753515Y-4572079D02*
X5753515Y-4591127D01*
X5753515Y-4591127D02*
X5743991Y-4619698D01*
X5743991Y-4619698D02*
X5629706Y-4733984D01*
X5629706Y-4733984D02*
X5753515Y-4733984D01*
X5991610Y-4733984D02*
X5991610Y-4533984D01*
X6077325Y-4733984D02*
X6077325Y-4629222D01*
X6077325Y-4629222D02*
X6067801Y-4610174D01*
X6067801Y-4610174D02*
X6048753Y-4600650D01*
X6048753Y-4600650D02*
X6020182Y-4600650D01*
X6020182Y-4600650D02*
X6001134Y-4610174D01*
X6001134Y-4610174D02*
X5991610Y-4619698D01*
X6201134Y-4733984D02*
X6182087Y-4724460D01*
X6182087Y-4724460D02*
X6172563Y-4714936D01*
X6172563Y-4714936D02*
X6163039Y-4695889D01*
X6163039Y-4695889D02*
X6163039Y-4638746D01*
X6163039Y-4638746D02*
X6172563Y-4619698D01*
X6172563Y-4619698D02*
X6182087Y-4610174D01*
X6182087Y-4610174D02*
X6201134Y-4600650D01*
X6201134Y-4600650D02*
X6229706Y-4600650D01*
X6229706Y-4600650D02*
X6248753Y-4610174D01*
X6248753Y-4610174D02*
X6258277Y-4619698D01*
X6258277Y-4619698D02*
X6267801Y-4638746D01*
X6267801Y-4638746D02*
X6267801Y-4695889D01*
X6267801Y-4695889D02*
X6258277Y-4714936D01*
X6258277Y-4714936D02*
X6248753Y-4724460D01*
X6248753Y-4724460D02*
X6229706Y-4733984D01*
X6229706Y-4733984D02*
X6201134Y-4733984D01*
X6382087Y-4733984D02*
X6363039Y-4724460D01*
X6363039Y-4724460D02*
X6353515Y-4705412D01*
X6353515Y-4705412D02*
X6353515Y-4533984D01*
X6534468Y-4724460D02*
X6515420Y-4733984D01*
X6515420Y-4733984D02*
X6477325Y-4733984D01*
X6477325Y-4733984D02*
X6458277Y-4724460D01*
X6458277Y-4724460D02*
X6448753Y-4705412D01*
X6448753Y-4705412D02*
X6448753Y-4629222D01*
X6448753Y-4629222D02*
X6458277Y-4610174D01*
X6458277Y-4610174D02*
X6477325Y-4600650D01*
X6477325Y-4600650D02*
X6515420Y-4600650D01*
X6515420Y-4600650D02*
X6534468Y-4610174D01*
X6534468Y-4610174D02*
X6543991Y-4629222D01*
X6543991Y-4629222D02*
X6543991Y-4648270D01*
X6543991Y-4648270D02*
X6448753Y-4667317D01*
X6620182Y-4724460D02*
X6639230Y-4733984D01*
X6639230Y-4733984D02*
X6677325Y-4733984D01*
X6677325Y-4733984D02*
X6696372Y-4724460D01*
X6696372Y-4724460D02*
X6705896Y-4705412D01*
X6705896Y-4705412D02*
X6705896Y-4695889D01*
X6705896Y-4695889D02*
X6696372Y-4676841D01*
X6696372Y-4676841D02*
X6677325Y-4667317D01*
X6677325Y-4667317D02*
X6648753Y-4667317D01*
X6648753Y-4667317D02*
X6629706Y-4657793D01*
X6629706Y-4657793D02*
X6620182Y-4638746D01*
X6620182Y-4638746D02*
X6620182Y-4629222D01*
X6620182Y-4629222D02*
X6629706Y-4610174D01*
X6629706Y-4610174D02*
X6648753Y-4600650D01*
X6648753Y-4600650D02*
X6677325Y-4600650D01*
X6677325Y-4600650D02*
X6696372Y-4610174D01*
X6772563Y-4810174D02*
X6782087Y-4800650D01*
X6782087Y-4800650D02*
X6801134Y-4772079D01*
X6801134Y-4772079D02*
X6810658Y-4753031D01*
X6810658Y-4753031D02*
X6820182Y-4724460D01*
X6820182Y-4724460D02*
X6829706Y-4676841D01*
X6829706Y-4676841D02*
X6829706Y-4638746D01*
X6829706Y-4638746D02*
X6820182Y-4591127D01*
X6820182Y-4591127D02*
X6810658Y-4562555D01*
X6810658Y-4562555D02*
X6801134Y-4543508D01*
X6801134Y-4543508D02*
X6782087Y-4514936D01*
X6782087Y-4514936D02*
X6772563Y-4505412D01*
X7134468Y-4810174D02*
X7124944Y-4800650D01*
X7124944Y-4800650D02*
X7105896Y-4772079D01*
X7105896Y-4772079D02*
X7096372Y-4753031D01*
X7096372Y-4753031D02*
X7086849Y-4724460D01*
X7086849Y-4724460D02*
X7077325Y-4676841D01*
X7077325Y-4676841D02*
X7077325Y-4638746D01*
X7077325Y-4638746D02*
X7086849Y-4591127D01*
X7086849Y-4591127D02*
X7096372Y-4562555D01*
X7096372Y-4562555D02*
X7105896Y-4543508D01*
X7105896Y-4543508D02*
X7124944Y-4514936D01*
X7124944Y-4514936D02*
X7134468Y-4505412D01*
X7210658Y-4600650D02*
X7210658Y-4733984D01*
X7210658Y-4619698D02*
X7220182Y-4610174D01*
X7220182Y-4610174D02*
X7239230Y-4600650D01*
X7239230Y-4600650D02*
X7267801Y-4600650D01*
X7267801Y-4600650D02*
X7286849Y-4610174D01*
X7286849Y-4610174D02*
X7296372Y-4629222D01*
X7296372Y-4629222D02*
X7296372Y-4733984D01*
X7420182Y-4733984D02*
X7401134Y-4724460D01*
X7401134Y-4724460D02*
X7391611Y-4714936D01*
X7391611Y-4714936D02*
X7382087Y-4695889D01*
X7382087Y-4695889D02*
X7382087Y-4638746D01*
X7382087Y-4638746D02*
X7391611Y-4619698D01*
X7391611Y-4619698D02*
X7401134Y-4610174D01*
X7401134Y-4610174D02*
X7420182Y-4600650D01*
X7420182Y-4600650D02*
X7448753Y-4600650D01*
X7448753Y-4600650D02*
X7467801Y-4610174D01*
X7467801Y-4610174D02*
X7477325Y-4619698D01*
X7477325Y-4619698D02*
X7486849Y-4638746D01*
X7486849Y-4638746D02*
X7486849Y-4695889D01*
X7486849Y-4695889D02*
X7477325Y-4714936D01*
X7477325Y-4714936D02*
X7467801Y-4724460D01*
X7467801Y-4724460D02*
X7448753Y-4733984D01*
X7448753Y-4733984D02*
X7420182Y-4733984D01*
X7543992Y-4600650D02*
X7620182Y-4600650D01*
X7572563Y-4533984D02*
X7572563Y-4705412D01*
X7572563Y-4705412D02*
X7582087Y-4724460D01*
X7582087Y-4724460D02*
X7601134Y-4733984D01*
X7601134Y-4733984D02*
X7620182Y-4733984D01*
X7839230Y-4600650D02*
X7839230Y-4800650D01*
X7839230Y-4610174D02*
X7858277Y-4600650D01*
X7858277Y-4600650D02*
X7896373Y-4600650D01*
X7896373Y-4600650D02*
X7915420Y-4610174D01*
X7915420Y-4610174D02*
X7924944Y-4619698D01*
X7924944Y-4619698D02*
X7934468Y-4638746D01*
X7934468Y-4638746D02*
X7934468Y-4695889D01*
X7934468Y-4695889D02*
X7924944Y-4714936D01*
X7924944Y-4714936D02*
X7915420Y-4724460D01*
X7915420Y-4724460D02*
X7896373Y-4733984D01*
X7896373Y-4733984D02*
X7858277Y-4733984D01*
X7858277Y-4733984D02*
X7839230Y-4724460D01*
X8048753Y-4733984D02*
X8029706Y-4724460D01*
X8029706Y-4724460D02*
X8020182Y-4705412D01*
X8020182Y-4705412D02*
X8020182Y-4533984D01*
X8210658Y-4733984D02*
X8210658Y-4629222D01*
X8210658Y-4629222D02*
X8201134Y-4610174D01*
X8201134Y-4610174D02*
X8182087Y-4600650D01*
X8182087Y-4600650D02*
X8143992Y-4600650D01*
X8143992Y-4600650D02*
X8124944Y-4610174D01*
X8210658Y-4724460D02*
X8191611Y-4733984D01*
X8191611Y-4733984D02*
X8143992Y-4733984D01*
X8143992Y-4733984D02*
X8124944Y-4724460D01*
X8124944Y-4724460D02*
X8115420Y-4705412D01*
X8115420Y-4705412D02*
X8115420Y-4686365D01*
X8115420Y-4686365D02*
X8124944Y-4667317D01*
X8124944Y-4667317D02*
X8143992Y-4657793D01*
X8143992Y-4657793D02*
X8191611Y-4657793D01*
X8191611Y-4657793D02*
X8210658Y-4648270D01*
X8277325Y-4600650D02*
X8353515Y-4600650D01*
X8305896Y-4533984D02*
X8305896Y-4705412D01*
X8305896Y-4705412D02*
X8315420Y-4724460D01*
X8315420Y-4724460D02*
X8334468Y-4733984D01*
X8334468Y-4733984D02*
X8353515Y-4733984D01*
X8496373Y-4724460D02*
X8477325Y-4733984D01*
X8477325Y-4733984D02*
X8439230Y-4733984D01*
X8439230Y-4733984D02*
X8420182Y-4724460D01*
X8420182Y-4724460D02*
X8410658Y-4705412D01*
X8410658Y-4705412D02*
X8410658Y-4629222D01*
X8410658Y-4629222D02*
X8420182Y-4610174D01*
X8420182Y-4610174D02*
X8439230Y-4600650D01*
X8439230Y-4600650D02*
X8477325Y-4600650D01*
X8477325Y-4600650D02*
X8496373Y-4610174D01*
X8496373Y-4610174D02*
X8505896Y-4629222D01*
X8505896Y-4629222D02*
X8505896Y-4648270D01*
X8505896Y-4648270D02*
X8410658Y-4667317D01*
X8677325Y-4733984D02*
X8677325Y-4533984D01*
X8677325Y-4724460D02*
X8658277Y-4733984D01*
X8658277Y-4733984D02*
X8620182Y-4733984D01*
X8620182Y-4733984D02*
X8601135Y-4724460D01*
X8601135Y-4724460D02*
X8591611Y-4714936D01*
X8591611Y-4714936D02*
X8582087Y-4695889D01*
X8582087Y-4695889D02*
X8582087Y-4638746D01*
X8582087Y-4638746D02*
X8591611Y-4619698D01*
X8591611Y-4619698D02*
X8601135Y-4610174D01*
X8601135Y-4610174D02*
X8620182Y-4600650D01*
X8620182Y-4600650D02*
X8658277Y-4600650D01*
X8658277Y-4600650D02*
X8677325Y-4610174D01*
X8753516Y-4810174D02*
X8763039Y-4800650D01*
X8763039Y-4800650D02*
X8782087Y-4772079D01*
X8782087Y-4772079D02*
X8791611Y-4753031D01*
X8791611Y-4753031D02*
X8801135Y-4724460D01*
X8801135Y-4724460D02*
X8810658Y-4676841D01*
X8810658Y-4676841D02*
X8810658Y-4638746D01*
X8810658Y-4638746D02*
X8801135Y-4591127D01*
X8801135Y-4591127D02*
X8791611Y-4562555D01*
X8791611Y-4562555D02*
X8782087Y-4543508D01*
X8782087Y-4543508D02*
X8763039Y-4514936D01*
X8763039Y-4514936D02*
X8753516Y-4505412D01*
M02*
