M48
; DRILL file {KiCad 8.0.3-8.0.3-0~ubuntu24.04.1} date 2024-07-06T11:56:44-0600
; FORMAT={-:-/ absolute / metric / decimal}
; #@! TF.CreationDate,2024-07-06T11:56:44-06:00
; #@! TF.GenerationSoftware,Kicad,Pcbnew,8.0.3-8.0.3-0~ubuntu24.04.1
; #@! TF.FileFunction,Plated,1,2,PTH
FMAT,2
METRIC
; #@! TA.AperFunction,Plated,PTH,ViaDrill
T1C0.250
; #@! TA.AperFunction,Plated,PTH,ComponentDrill
T2C0.900
%
G90
G05
T1
X27.45Y-36.025
X27.8Y-26.8
X27.823Y-28.45
X27.85Y-29.65
X27.85Y-30.85
X27.85Y-31.65
X27.85Y-33.25
X28.442Y-29.112
X28.474Y-30.35
X29.25Y-33.6
X29.55Y-24.0
X30.05Y-36.975
X31.15Y-22.4
X31.15Y-30.0
X31.65Y-36.975
X32.15Y-29.0
X32.15Y-29.987
X32.15Y-30.95
X33.15Y-30.0
X33.25Y-33.5
X34.0Y-25.05
X35.5Y-20.95
X35.5Y-23.2
X35.5Y-25.45
X35.85Y-36.05
X36.3Y-31.35
X36.3Y-34.75
X36.799Y-28.251
X36.8Y-26.9
X37.35Y-23.55
X38.9Y-31.9
X41.4Y-30.85
X43.1Y-27.55
X43.1Y-28.75
X43.2Y-31.25
X43.2Y-32.5
X43.2Y-33.75
X44.65Y-25.15
X45.35Y-24.3
X47.2Y-31.25
X47.45Y-36.2
X47.5Y-23.75
T2
X48.75Y-25.2
X48.75Y-34.8
M30
