%TF.GenerationSoftware,KiCad,Pcbnew,8.0.3-8.0.3-0~ubuntu24.04.1*%
%TF.CreationDate,2024-07-06T11:56:49-06:00*%
%TF.ProjectId,esp-prog,6573702d-7072-46f6-972e-6b696361645f,rev?*%
%TF.SameCoordinates,Original*%
%TF.FileFunction,Copper,L2,Bot*%
%TF.FilePolarity,Positive*%
%FSLAX46Y46*%
G04 Gerber Fmt 4.6, Leading zero omitted, Abs format (unit mm)*
G04 Created by KiCad (PCBNEW 8.0.3-8.0.3-0~ubuntu24.04.1) date 2024-07-06 11:56:49*
%MOMM*%
%LPD*%
G01*
G04 APERTURE LIST*
G04 Aperture macros list*
%AMRoundRect*
0 Rectangle with rounded corners*
0 $1 Rounding radius*
0 $2 $3 $4 $5 $6 $7 $8 $9 X,Y pos of 4 corners*
0 Add a 4 corners polygon primitive as box body*
4,1,4,$2,$3,$4,$5,$6,$7,$8,$9,$2,$3,0*
0 Add four circle primitives for the rounded corners*
1,1,$1+$1,$2,$3*
1,1,$1+$1,$4,$5*
1,1,$1+$1,$6,$7*
1,1,$1+$1,$8,$9*
0 Add four rect primitives between the rounded corners*
20,1,$1+$1,$2,$3,$4,$5,0*
20,1,$1+$1,$4,$5,$6,$7,0*
20,1,$1+$1,$6,$7,$8,$9,0*
20,1,$1+$1,$8,$9,$2,$3,0*%
G04 Aperture macros list end*
%TA.AperFunction,ComponentPad*%
%ADD10C,1.200000*%
%TD*%
%TA.AperFunction,SMDPad,CuDef*%
%ADD11RoundRect,0.200000X0.275000X-0.200000X0.275000X0.200000X-0.275000X0.200000X-0.275000X-0.200000X0*%
%TD*%
%TA.AperFunction,SMDPad,CuDef*%
%ADD12RoundRect,0.200000X0.200000X0.275000X-0.200000X0.275000X-0.200000X-0.275000X0.200000X-0.275000X0*%
%TD*%
%TA.AperFunction,SMDPad,CuDef*%
%ADD13RoundRect,0.200000X-0.275000X0.200000X-0.275000X-0.200000X0.275000X-0.200000X0.275000X0.200000X0*%
%TD*%
%TA.AperFunction,ViaPad*%
%ADD14C,0.550000*%
%TD*%
%TA.AperFunction,Conductor*%
%ADD15C,0.127000*%
%TD*%
%TA.AperFunction,Conductor*%
%ADD16C,0.508000*%
%TD*%
G04 APERTURE END LIST*
D10*
%TO.P,J1,*%
%TO.N,*%
X48750000Y-34800000D03*
X48750000Y-25200000D03*
%TD*%
D11*
%TO.P,R5,1*%
%TO.N,Net-(J2-CC1)*%
X26650000Y-28475000D03*
%TO.P,R5,2*%
%TO.N,GND*%
X26650000Y-26825000D03*
%TD*%
D12*
%TO.P,R1,1*%
%TO.N,+5v0*%
X35975000Y-32850000D03*
%TO.P,R1,2*%
%TO.N,Net-(U1-VBUS)*%
X34325000Y-32850000D03*
%TD*%
D13*
%TO.P,R4,1*%
%TO.N,Net-(J2-CC2)*%
X26700000Y-31625000D03*
%TO.P,R4,2*%
%TO.N,GND*%
X26700000Y-33275000D03*
%TD*%
D14*
%TO.N,GND*%
X27800000Y-26800000D03*
X31150000Y-22400000D03*
X32150000Y-30950000D03*
X30050000Y-36975000D03*
X35500000Y-23200000D03*
X32150000Y-29000000D03*
X27850000Y-33250009D03*
X43200000Y-31250000D03*
X35500000Y-25450000D03*
X36300000Y-34750000D03*
X31650000Y-36975000D03*
X47450000Y-36200000D03*
X36300000Y-31350000D03*
X31150000Y-30000000D03*
X47200000Y-31250000D03*
X47500000Y-23750000D03*
X35500000Y-20950000D03*
X32150000Y-29987500D03*
X33150000Y-30000000D03*
X27450000Y-36025000D03*
X29550000Y-24000000D03*
%TO.N,/DTR*%
X38900000Y-31900000D03*
X41400000Y-30850000D03*
%TO.N,+5v0*%
X45350000Y-24300000D03*
X43200000Y-33750000D03*
X37350000Y-23550000D03*
X34000000Y-25050000D03*
%TO.N,Net-(U1-VBUS)*%
X33250000Y-33500000D03*
%TO.N,Net-(J2-CC2)*%
X27850000Y-31650003D03*
%TO.N,Net-(J2-CC1)*%
X27822891Y-28450000D03*
%TO.N,+3v3*%
X44650000Y-25150000D03*
X43200000Y-32500000D03*
X35850000Y-36050000D03*
X29250000Y-33600000D03*
%TO.N,/ESP_RXD*%
X36800000Y-26900000D03*
X43100000Y-27550000D03*
%TO.N,Net-(U1-D-)*%
X28441954Y-29111860D03*
X28474500Y-30350000D03*
%TO.N,/ESP_TXD*%
X43100000Y-28750000D03*
X36799265Y-28250735D03*
%TO.N,Net-(U1-D+)*%
X27850000Y-30850000D03*
X27850000Y-29650000D03*
%TD*%
D15*
%TO.N,GND*%
X36350000Y-34750000D02*
X36300000Y-34750000D01*
%TO.N,/DTR*%
X39950000Y-30850000D02*
X38900000Y-31900000D01*
X41400000Y-30850000D02*
X39950000Y-30850000D01*
D16*
%TO.N,+5v0*%
X34800000Y-24250000D02*
X36650000Y-24250000D01*
X46100000Y-25050000D02*
X45350000Y-24300000D01*
X37025000Y-33900000D02*
X43050000Y-33900000D01*
X46100000Y-33100000D02*
X46100000Y-25050000D01*
X36650000Y-24250000D02*
X37350000Y-23550000D01*
X34000000Y-25050000D02*
X34800000Y-24250000D01*
X43200000Y-33750000D02*
X45450000Y-33750000D01*
X45450000Y-33750000D02*
X46100000Y-33100000D01*
X35975000Y-32850000D02*
X37025000Y-33900000D01*
X43050000Y-33900000D02*
X43200000Y-33750000D01*
D15*
%TO.N,Net-(U1-VBUS)*%
X33250000Y-33150000D02*
X33550000Y-32850000D01*
X33550000Y-32850000D02*
X34325000Y-32850000D01*
X33250000Y-33500000D02*
X33250000Y-33150000D01*
%TO.N,Net-(J2-CC2)*%
X27850000Y-31650003D02*
X26775003Y-31650003D01*
X26775003Y-31650003D02*
X26700000Y-31575000D01*
%TO.N,Net-(J2-CC1)*%
X27822891Y-28450000D02*
X26725000Y-28450000D01*
X26725000Y-28450000D02*
X26650000Y-28525000D01*
D16*
%TO.N,+3v3*%
X30400000Y-35600000D02*
X29250000Y-34450000D01*
X35400000Y-35600000D02*
X30400000Y-35600000D01*
X43200000Y-32500000D02*
X44450000Y-32500000D01*
X45250000Y-31700000D02*
X45250000Y-25750000D01*
X45250000Y-25750000D02*
X44650000Y-25150000D01*
X44450000Y-32500000D02*
X45250000Y-31700000D01*
X35850000Y-36050000D02*
X35400000Y-35600000D01*
X29250000Y-34450000D02*
X29250000Y-33600000D01*
D15*
%TO.N,/ESP_RXD*%
X37400000Y-27500000D02*
X43050000Y-27500000D01*
X36800000Y-26900000D02*
X37400000Y-27500000D01*
X43050000Y-27500000D02*
X43100000Y-27550000D01*
%TO.N,Net-(U1-D-)*%
X28474500Y-29144406D02*
X28474500Y-30350000D01*
X28441954Y-29111860D02*
X28474500Y-29144406D01*
%TO.N,/ESP_TXD*%
X36800000Y-28250000D02*
X42600000Y-28250000D01*
X42600000Y-28250000D02*
X43100000Y-28750000D01*
X36799265Y-28250735D02*
X36800000Y-28250000D01*
%TO.N,Net-(U1-D+)*%
X27850000Y-29650000D02*
X27850000Y-30850000D01*
%TD*%
%TA.AperFunction,Conductor*%
%TO.N,GND*%
G36*
X49442539Y-20520185D02*
G01*
X49488294Y-20572989D01*
X49499500Y-20624500D01*
X49499500Y-24147072D01*
X49479815Y-24214111D01*
X49427011Y-24259866D01*
X49357853Y-24269810D01*
X49310223Y-24252499D01*
X49242642Y-24210655D01*
X49242635Y-24210651D01*
X49147546Y-24173814D01*
X49052456Y-24136976D01*
X48851976Y-24099500D01*
X48648024Y-24099500D01*
X48447544Y-24136976D01*
X48447541Y-24136976D01*
X48447541Y-24136977D01*
X48257364Y-24210651D01*
X48257357Y-24210655D01*
X48083960Y-24318017D01*
X48083958Y-24318019D01*
X47933237Y-24455418D01*
X47810327Y-24618178D01*
X47719422Y-24800739D01*
X47719417Y-24800752D01*
X47663602Y-24996917D01*
X47644785Y-25199999D01*
X47644785Y-25200000D01*
X47663602Y-25403082D01*
X47719417Y-25599247D01*
X47719422Y-25599260D01*
X47810327Y-25781821D01*
X47933237Y-25944581D01*
X48083958Y-26081980D01*
X48083960Y-26081982D01*
X48159807Y-26128944D01*
X48257363Y-26189348D01*
X48447544Y-26263024D01*
X48648024Y-26300500D01*
X48648026Y-26300500D01*
X48851974Y-26300500D01*
X48851976Y-26300500D01*
X49052456Y-26263024D01*
X49242637Y-26189348D01*
X49310222Y-26147500D01*
X49377582Y-26128944D01*
X49444282Y-26149752D01*
X49489143Y-26203317D01*
X49499500Y-26252927D01*
X49499500Y-33747072D01*
X49479815Y-33814111D01*
X49427011Y-33859866D01*
X49357853Y-33869810D01*
X49310223Y-33852499D01*
X49242642Y-33810655D01*
X49242635Y-33810651D01*
X49078517Y-33747072D01*
X49052456Y-33736976D01*
X48851976Y-33699500D01*
X48648024Y-33699500D01*
X48447544Y-33736976D01*
X48447541Y-33736976D01*
X48447541Y-33736977D01*
X48257364Y-33810651D01*
X48257357Y-33810655D01*
X48083960Y-33918017D01*
X48083958Y-33918019D01*
X47933237Y-34055418D01*
X47810327Y-34218178D01*
X47719422Y-34400739D01*
X47719417Y-34400752D01*
X47663602Y-34596917D01*
X47644785Y-34799999D01*
X47644785Y-34800000D01*
X47663602Y-35003082D01*
X47719417Y-35199247D01*
X47719422Y-35199260D01*
X47810327Y-35381821D01*
X47933237Y-35544581D01*
X48083958Y-35681980D01*
X48083960Y-35681982D01*
X48131464Y-35711395D01*
X48257363Y-35789348D01*
X48447544Y-35863024D01*
X48648024Y-35900500D01*
X48648026Y-35900500D01*
X48851974Y-35900500D01*
X48851976Y-35900500D01*
X49052456Y-35863024D01*
X49242637Y-35789348D01*
X49310222Y-35747500D01*
X49377582Y-35728944D01*
X49444282Y-35749752D01*
X49489143Y-35803317D01*
X49499500Y-35852927D01*
X49499500Y-39375500D01*
X49479815Y-39442539D01*
X49427011Y-39488294D01*
X49375500Y-39499500D01*
X20624500Y-39499500D01*
X20557461Y-39479815D01*
X20511706Y-39427011D01*
X20500500Y-39375500D01*
X20500500Y-27034234D01*
X24554500Y-27034234D01*
X24554500Y-27185765D01*
X24593719Y-27332136D01*
X24619247Y-27376351D01*
X24669485Y-27463365D01*
X24776635Y-27570515D01*
X24907865Y-27646281D01*
X25054234Y-27685500D01*
X25054236Y-27685500D01*
X25205764Y-27685500D01*
X25205766Y-27685500D01*
X25352135Y-27646281D01*
X25483365Y-27570515D01*
X25590515Y-27463365D01*
X25598681Y-27449220D01*
X25649246Y-27401006D01*
X25717852Y-27387781D01*
X25782718Y-27413748D01*
X25812184Y-27447069D01*
X25819925Y-27459874D01*
X25819928Y-27459878D01*
X25922015Y-27561965D01*
X25955500Y-27623288D01*
X25950516Y-27692980D01*
X25922015Y-27737327D01*
X25819531Y-27839810D01*
X25819530Y-27839811D01*
X25731522Y-27985393D01*
X25680913Y-28147807D01*
X25674500Y-28218386D01*
X25674500Y-28731613D01*
X25680913Y-28802192D01*
X25680913Y-28802194D01*
X25680914Y-28802196D01*
X25731522Y-28964606D01*
X25759916Y-29011576D01*
X25819530Y-29110188D01*
X25939811Y-29230469D01*
X25939813Y-29230470D01*
X25939815Y-29230472D01*
X26085394Y-29318478D01*
X26247804Y-29369086D01*
X26318384Y-29375500D01*
X26318387Y-29375500D01*
X26961765Y-29375500D01*
X27028804Y-29395185D01*
X27074559Y-29447989D01*
X27084985Y-29513383D01*
X27069593Y-29649996D01*
X27069593Y-29650003D01*
X27089157Y-29823648D01*
X27089159Y-29823658D01*
X27146877Y-29988604D01*
X27239853Y-30136576D01*
X27249681Y-30146404D01*
X27283166Y-30207727D01*
X27286000Y-30234085D01*
X27286000Y-30265915D01*
X27266315Y-30332954D01*
X27249681Y-30353596D01*
X27239853Y-30363423D01*
X27146877Y-30511395D01*
X27101367Y-30641455D01*
X27060645Y-30698231D01*
X26995693Y-30723978D01*
X26984326Y-30724500D01*
X26368384Y-30724500D01*
X26349145Y-30726248D01*
X26297807Y-30730913D01*
X26135393Y-30781522D01*
X25989811Y-30869530D01*
X25869530Y-30989811D01*
X25781522Y-31135393D01*
X25730913Y-31297807D01*
X25724500Y-31368386D01*
X25724500Y-31881613D01*
X25730913Y-31952192D01*
X25730913Y-31952194D01*
X25730914Y-31952196D01*
X25781522Y-32114606D01*
X25809806Y-32161394D01*
X25869530Y-32260188D01*
X25972015Y-32362673D01*
X26005500Y-32423996D01*
X26000516Y-32493688D01*
X25972015Y-32538035D01*
X25869928Y-32640121D01*
X25869925Y-32640125D01*
X25866140Y-32646387D01*
X25814611Y-32693573D01*
X25745751Y-32705410D01*
X25681423Y-32678139D01*
X25652638Y-32644235D01*
X25650265Y-32640125D01*
X25590515Y-32536635D01*
X25483365Y-32429485D01*
X25400236Y-32381490D01*
X25352136Y-32353719D01*
X25249965Y-32326343D01*
X25205766Y-32314500D01*
X25054234Y-32314500D01*
X24907863Y-32353719D01*
X24776635Y-32429485D01*
X24776632Y-32429487D01*
X24669487Y-32536632D01*
X24669485Y-32536635D01*
X24593719Y-32667863D01*
X24561670Y-32787475D01*
X24554500Y-32814234D01*
X24554500Y-32965766D01*
X24567269Y-33013420D01*
X24593719Y-33112136D01*
X24609722Y-33139853D01*
X24669485Y-33243365D01*
X24776635Y-33350515D01*
X24907865Y-33426281D01*
X25054234Y-33465500D01*
X25054236Y-33465500D01*
X25205764Y-33465500D01*
X25205766Y-33465500D01*
X25352135Y-33426281D01*
X25483365Y-33350515D01*
X25513320Y-33320559D01*
X25574640Y-33287075D01*
X25644332Y-33292059D01*
X25700266Y-33333929D01*
X25724684Y-33399393D01*
X25725000Y-33408240D01*
X25725000Y-33531582D01*
X25731408Y-33602102D01*
X25731409Y-33602107D01*
X25781981Y-33764396D01*
X25869927Y-33909877D01*
X25990122Y-34030072D01*
X26135604Y-34118019D01*
X26135603Y-34118019D01*
X26297894Y-34168590D01*
X26297892Y-34168590D01*
X26368418Y-34174999D01*
X26950000Y-34174999D01*
X27031581Y-34174999D01*
X27102102Y-34168591D01*
X27102107Y-34168590D01*
X27264396Y-34118018D01*
X27409877Y-34030072D01*
X27530072Y-33909877D01*
X27618019Y-33764395D01*
X27668590Y-33602106D01*
X27668782Y-33599996D01*
X28469593Y-33599996D01*
X28469593Y-33600003D01*
X28489157Y-33773653D01*
X28490707Y-33780439D01*
X28490019Y-33780595D01*
X28495500Y-33812845D01*
X28495500Y-34370552D01*
X28495499Y-34370578D01*
X28495499Y-34375688D01*
X28495499Y-34524312D01*
X28495499Y-34524314D01*
X28495498Y-34524314D01*
X28524493Y-34670073D01*
X28524496Y-34670083D01*
X28581366Y-34807381D01*
X28581372Y-34807392D01*
X28663942Y-34930968D01*
X28663943Y-34930969D01*
X29809600Y-36076624D01*
X29809621Y-36076647D01*
X29919031Y-36186057D01*
X29919034Y-36186059D01*
X29975304Y-36223657D01*
X30042611Y-36268630D01*
X30123043Y-36301945D01*
X30123044Y-36301946D01*
X30146603Y-36311704D01*
X30179920Y-36325505D01*
X30179929Y-36325506D01*
X30179930Y-36325507D01*
X30204103Y-36330315D01*
X30204110Y-36330316D01*
X30325686Y-36354501D01*
X30325688Y-36354501D01*
X30480426Y-36354501D01*
X30480446Y-36354500D01*
X35036113Y-36354500D01*
X35103152Y-36374185D01*
X35123794Y-36390819D01*
X35179764Y-36446789D01*
X35197076Y-36468497D01*
X35239853Y-36536576D01*
X35363424Y-36660147D01*
X35511394Y-36753122D01*
X35676343Y-36810841D01*
X35676349Y-36810841D01*
X35676351Y-36810842D01*
X35849996Y-36830407D01*
X35850000Y-36830407D01*
X35850004Y-36830407D01*
X36023648Y-36810842D01*
X36023647Y-36810842D01*
X36023657Y-36810841D01*
X36188606Y-36753122D01*
X36336576Y-36660147D01*
X36460147Y-36536576D01*
X36553122Y-36388606D01*
X36610841Y-36223657D01*
X36626918Y-36080966D01*
X36630407Y-36050003D01*
X36630407Y-36049996D01*
X36610842Y-35876351D01*
X36610841Y-35876349D01*
X36610841Y-35876343D01*
X36553122Y-35711394D01*
X36460147Y-35563424D01*
X36336576Y-35439853D01*
X36268497Y-35397076D01*
X36246789Y-35379764D01*
X35880969Y-35013943D01*
X35880968Y-35013942D01*
X35757392Y-34931372D01*
X35757391Y-34931371D01*
X35757389Y-34931370D01*
X35757386Y-34931368D01*
X35757381Y-34931366D01*
X35666242Y-34893616D01*
X35620080Y-34874495D01*
X35595894Y-34869684D01*
X35474314Y-34845499D01*
X35474312Y-34845499D01*
X35325688Y-34845499D01*
X35319574Y-34845499D01*
X35319554Y-34845500D01*
X30763886Y-34845500D01*
X30696847Y-34825815D01*
X30676205Y-34809181D01*
X30040819Y-34173794D01*
X30007334Y-34112471D01*
X30004500Y-34086113D01*
X30004500Y-33812845D01*
X30009980Y-33780595D01*
X30009293Y-33780439D01*
X30010842Y-33773653D01*
X30030407Y-33600003D01*
X30030407Y-33599996D01*
X30019140Y-33499996D01*
X32469593Y-33499996D01*
X32469593Y-33500003D01*
X32489157Y-33673648D01*
X32489159Y-33673658D01*
X32546877Y-33838604D01*
X32546878Y-33838606D01*
X32639853Y-33986576D01*
X32763424Y-34110147D01*
X32911394Y-34203122D01*
X33076343Y-34260841D01*
X33076349Y-34260841D01*
X33076351Y-34260842D01*
X33249996Y-34280407D01*
X33250000Y-34280407D01*
X33250004Y-34280407D01*
X33423648Y-34260842D01*
X33423647Y-34260842D01*
X33423657Y-34260841D01*
X33588606Y-34203122D01*
X33736576Y-34110147D01*
X33860147Y-33986576D01*
X33926672Y-33880700D01*
X33979005Y-33834410D01*
X34042885Y-33823182D01*
X34068384Y-33825500D01*
X34068391Y-33825500D01*
X34581613Y-33825500D01*
X34581616Y-33825500D01*
X34652196Y-33819086D01*
X34814606Y-33768478D01*
X34960185Y-33680472D01*
X34967009Y-33673648D01*
X35062319Y-33578339D01*
X35123642Y-33544854D01*
X35193334Y-33549838D01*
X35237681Y-33578339D01*
X35339811Y-33680469D01*
X35339813Y-33680470D01*
X35339815Y-33680472D01*
X35485394Y-33768478D01*
X35647804Y-33819086D01*
X35718384Y-33825500D01*
X35832113Y-33825500D01*
X35899152Y-33845185D01*
X35919794Y-33861819D01*
X36434600Y-34376624D01*
X36434621Y-34376647D01*
X36544028Y-34486054D01*
X36544035Y-34486060D01*
X36667608Y-34568628D01*
X36667609Y-34568628D01*
X36667610Y-34568629D01*
X36804920Y-34625505D01*
X36950683Y-34654499D01*
X36950687Y-34654500D01*
X36950688Y-34654500D01*
X37099312Y-34654500D01*
X42969554Y-34654500D01*
X42969574Y-34654501D01*
X42975688Y-34654501D01*
X43124314Y-34654501D01*
X43245894Y-34630315D01*
X43245894Y-34630316D01*
X43245900Y-34630313D01*
X43270080Y-34625505D01*
X43339097Y-34596917D01*
X43407389Y-34568630D01*
X43472091Y-34525397D01*
X43538768Y-34504520D01*
X43540981Y-34504500D01*
X45369554Y-34504500D01*
X45369574Y-34504501D01*
X45375688Y-34504501D01*
X45524314Y-34504501D01*
X45645894Y-34480315D01*
X45645894Y-34480316D01*
X45645900Y-34480313D01*
X45670080Y-34475505D01*
X45705942Y-34460649D01*
X45726944Y-34451951D01*
X45726947Y-34451949D01*
X45726955Y-34451946D01*
X45807389Y-34418630D01*
X45930966Y-34336059D01*
X46580963Y-33686060D01*
X46580966Y-33686059D01*
X46686059Y-33580966D01*
X46768629Y-33457390D01*
X46768630Y-33457389D01*
X46820996Y-33330966D01*
X46825505Y-33320080D01*
X46830315Y-33295894D01*
X46840764Y-33243367D01*
X46854501Y-33174313D01*
X46854501Y-33020578D01*
X46854500Y-33020552D01*
X46854500Y-24975687D01*
X46854499Y-24975683D01*
X46843150Y-24918627D01*
X46825505Y-24829920D01*
X46768629Y-24692610D01*
X46718896Y-24618179D01*
X46686060Y-24569035D01*
X46686054Y-24569028D01*
X46576647Y-24459621D01*
X46576624Y-24459600D01*
X46020235Y-23903210D01*
X46002922Y-23881501D01*
X45960146Y-23813423D01*
X45836576Y-23689853D01*
X45688604Y-23596877D01*
X45523658Y-23539159D01*
X45523648Y-23539157D01*
X45350004Y-23519593D01*
X45349996Y-23519593D01*
X45176351Y-23539157D01*
X45176341Y-23539159D01*
X45011395Y-23596877D01*
X44863423Y-23689853D01*
X44739853Y-23813423D01*
X44646877Y-23961395D01*
X44589159Y-24126341D01*
X44589157Y-24126350D01*
X44571593Y-24282237D01*
X44544526Y-24346651D01*
X44486931Y-24386206D01*
X44476591Y-24389072D01*
X44311395Y-24446877D01*
X44163423Y-24539853D01*
X44039853Y-24663423D01*
X43946877Y-24811395D01*
X43889159Y-24976341D01*
X43889157Y-24976351D01*
X43869593Y-25149996D01*
X43869593Y-25150003D01*
X43889157Y-25323648D01*
X43889159Y-25323658D01*
X43946877Y-25488604D01*
X43946878Y-25488606D01*
X44039853Y-25636576D01*
X44163424Y-25760147D01*
X44231503Y-25802923D01*
X44253206Y-25820231D01*
X44377555Y-25944579D01*
X44459181Y-26026205D01*
X44492666Y-26087528D01*
X44495500Y-26113886D01*
X44495500Y-31336113D01*
X44475815Y-31403152D01*
X44459181Y-31423794D01*
X44173794Y-31709181D01*
X44112471Y-31742666D01*
X44086113Y-31745500D01*
X43412846Y-31745500D01*
X43380595Y-31740020D01*
X43380439Y-31740707D01*
X43373653Y-31739157D01*
X43200004Y-31719593D01*
X43199996Y-31719593D01*
X43026351Y-31739157D01*
X43026341Y-31739159D01*
X42861395Y-31796877D01*
X42713423Y-31889853D01*
X42589853Y-32013423D01*
X42496877Y-32161395D01*
X42439159Y-32326341D01*
X42439157Y-32326351D01*
X42419593Y-32499996D01*
X42419593Y-32500003D01*
X42439157Y-32673648D01*
X42439159Y-32673658D01*
X42490225Y-32819593D01*
X42496878Y-32838606D01*
X42570345Y-32955529D01*
X42589345Y-33022765D01*
X42568977Y-33089600D01*
X42515709Y-33134814D01*
X42465351Y-33145500D01*
X37388886Y-33145500D01*
X37321847Y-33125815D01*
X37301205Y-33109181D01*
X36911819Y-32719794D01*
X36878334Y-32658471D01*
X36875500Y-32632113D01*
X36875500Y-32518386D01*
X36874165Y-32503696D01*
X36869086Y-32447804D01*
X36818478Y-32285394D01*
X36730472Y-32139815D01*
X36730470Y-32139813D01*
X36730469Y-32139811D01*
X36610188Y-32019530D01*
X36559035Y-31988607D01*
X36464606Y-31931522D01*
X36363434Y-31899996D01*
X38119593Y-31899996D01*
X38119593Y-31900003D01*
X38139157Y-32073648D01*
X38139159Y-32073658D01*
X38169860Y-32161394D01*
X38196878Y-32238606D01*
X38289853Y-32386576D01*
X38413424Y-32510147D01*
X38561394Y-32603122D01*
X38726343Y-32660841D01*
X38726349Y-32660841D01*
X38726351Y-32660842D01*
X38899996Y-32680407D01*
X38900000Y-32680407D01*
X38900004Y-32680407D01*
X39073648Y-32660842D01*
X39073647Y-32660842D01*
X39073657Y-32660841D01*
X39238606Y-32603122D01*
X39386576Y-32510147D01*
X39510147Y-32386576D01*
X39603122Y-32238606D01*
X39660841Y-32073657D01*
X39673363Y-31962506D01*
X39700428Y-31898097D01*
X39708892Y-31888722D01*
X40147297Y-31450319D01*
X40208620Y-31416834D01*
X40234978Y-31414000D01*
X40815915Y-31414000D01*
X40882954Y-31433685D01*
X40903596Y-31450319D01*
X40913424Y-31460147D01*
X41061394Y-31553122D01*
X41226343Y-31610841D01*
X41226349Y-31610841D01*
X41226351Y-31610842D01*
X41399996Y-31630407D01*
X41400000Y-31630407D01*
X41400004Y-31630407D01*
X41573648Y-31610842D01*
X41573647Y-31610842D01*
X41573657Y-31610841D01*
X41738606Y-31553122D01*
X41886576Y-31460147D01*
X42010147Y-31336576D01*
X42103122Y-31188606D01*
X42160841Y-31023657D01*
X42180407Y-30850000D01*
X42166989Y-30730913D01*
X42160842Y-30676351D01*
X42160841Y-30676349D01*
X42160841Y-30676343D01*
X42103122Y-30511394D01*
X42010147Y-30363424D01*
X41886576Y-30239853D01*
X41738606Y-30146878D01*
X41738605Y-30146877D01*
X41738604Y-30146877D01*
X41573658Y-30089159D01*
X41573648Y-30089157D01*
X41400004Y-30069593D01*
X41399996Y-30069593D01*
X41226351Y-30089157D01*
X41226341Y-30089159D01*
X41061395Y-30146877D01*
X40913423Y-30239853D01*
X40903596Y-30249681D01*
X40842273Y-30283166D01*
X40815915Y-30286000D01*
X39875747Y-30286000D01*
X39732304Y-30324435D01*
X39732301Y-30324436D01*
X39603699Y-30398685D01*
X39603693Y-30398689D01*
X39498685Y-30503698D01*
X38911286Y-31091096D01*
X38849963Y-31124581D01*
X38837489Y-31126635D01*
X38726346Y-31139157D01*
X38561395Y-31196877D01*
X38413423Y-31289853D01*
X38289853Y-31413423D01*
X38196877Y-31561395D01*
X38139159Y-31726341D01*
X38139157Y-31726351D01*
X38119593Y-31899996D01*
X36363434Y-31899996D01*
X36302196Y-31880914D01*
X36302194Y-31880913D01*
X36302192Y-31880913D01*
X36252778Y-31876423D01*
X36231616Y-31874500D01*
X35718384Y-31874500D01*
X35699145Y-31876248D01*
X35647807Y-31880913D01*
X35485393Y-31931522D01*
X35339811Y-32019530D01*
X35339810Y-32019531D01*
X35237681Y-32121661D01*
X35176358Y-32155146D01*
X35106666Y-32150162D01*
X35062319Y-32121661D01*
X34960188Y-32019530D01*
X34909035Y-31988607D01*
X34814606Y-31931522D01*
X34652196Y-31880914D01*
X34652194Y-31880913D01*
X34652192Y-31880913D01*
X34602778Y-31876423D01*
X34581616Y-31874500D01*
X34068384Y-31874500D01*
X34049145Y-31876248D01*
X33997807Y-31880913D01*
X33835393Y-31931522D01*
X33689811Y-32019530D01*
X33569531Y-32139810D01*
X33569528Y-32139814D01*
X33508018Y-32241563D01*
X33456490Y-32288750D01*
X33433996Y-32297187D01*
X33332302Y-32324435D01*
X33332301Y-32324436D01*
X33203699Y-32398685D01*
X33203693Y-32398689D01*
X32798688Y-32803694D01*
X32798684Y-32803699D01*
X32737329Y-32909970D01*
X32717624Y-32935650D01*
X32639855Y-33013419D01*
X32639855Y-33013420D01*
X32546877Y-33161395D01*
X32489159Y-33326341D01*
X32489157Y-33326351D01*
X32469593Y-33499996D01*
X30019140Y-33499996D01*
X30010842Y-33426351D01*
X30010841Y-33426349D01*
X30010841Y-33426343D01*
X29953122Y-33261394D01*
X29860147Y-33113424D01*
X29736576Y-32989853D01*
X29588606Y-32896878D01*
X29588605Y-32896877D01*
X29588604Y-32896877D01*
X29423658Y-32839159D01*
X29423648Y-32839157D01*
X29250004Y-32819593D01*
X29249996Y-32819593D01*
X29076351Y-32839157D01*
X29076341Y-32839159D01*
X28911395Y-32896877D01*
X28763423Y-32989853D01*
X28639853Y-33113423D01*
X28546877Y-33261395D01*
X28489159Y-33426341D01*
X28489157Y-33426351D01*
X28469593Y-33599996D01*
X27668782Y-33599996D01*
X27675000Y-33531572D01*
X27675000Y-33525000D01*
X26950000Y-33525000D01*
X26950000Y-34174999D01*
X26368418Y-34174999D01*
X26449999Y-34174998D01*
X26450000Y-34174998D01*
X26450000Y-33149000D01*
X26469685Y-33081961D01*
X26522489Y-33036206D01*
X26574000Y-33025000D01*
X27674999Y-33025000D01*
X27674999Y-33018417D01*
X27668591Y-32947897D01*
X27668590Y-32947892D01*
X27618018Y-32785603D01*
X27530072Y-32640122D01*
X27482805Y-32592855D01*
X27449320Y-32531532D01*
X27454304Y-32461840D01*
X27496176Y-32405907D01*
X27561640Y-32381490D01*
X27611438Y-32388132D01*
X27676343Y-32410844D01*
X27676347Y-32410844D01*
X27676351Y-32410845D01*
X27849996Y-32430410D01*
X27850000Y-32430410D01*
X27850004Y-32430410D01*
X28023648Y-32410845D01*
X28023647Y-32410845D01*
X28023657Y-32410844D01*
X28188606Y-32353125D01*
X28336576Y-32260150D01*
X28460147Y-32136579D01*
X28553122Y-31988609D01*
X28610841Y-31823660D01*
X28619967Y-31742666D01*
X28630407Y-31650006D01*
X28630407Y-31649999D01*
X28610842Y-31476354D01*
X28610841Y-31476352D01*
X28610841Y-31476346D01*
X28553122Y-31311397D01*
X28550101Y-31305124D01*
X28552597Y-31303921D01*
X28536996Y-31248776D01*
X28552494Y-31196027D01*
X28550102Y-31194875D01*
X28553119Y-31188610D01*
X28553122Y-31188606D01*
X28553123Y-31188601D01*
X28556146Y-31182326D01*
X28556853Y-31182666D01*
X28556870Y-31182641D01*
X28557098Y-31182784D01*
X28558270Y-31183349D01*
X28592514Y-31135581D01*
X28642073Y-31115508D01*
X28641362Y-31112392D01*
X28648150Y-31110841D01*
X28648157Y-31110841D01*
X28813106Y-31053122D01*
X28961076Y-30960147D01*
X29084647Y-30836576D01*
X29177622Y-30688606D01*
X29235341Y-30523657D01*
X29249421Y-30398689D01*
X29254907Y-30350003D01*
X29254907Y-30349996D01*
X29235342Y-30176351D01*
X29235341Y-30176349D01*
X29235341Y-30176343D01*
X29177622Y-30011394D01*
X29084647Y-29863424D01*
X29074819Y-29853596D01*
X29041334Y-29792273D01*
X29038500Y-29765915D01*
X29038500Y-29655805D01*
X29057505Y-29589834D01*
X29145076Y-29450466D01*
X29202795Y-29285517D01*
X29222361Y-29111860D01*
X29222172Y-29110185D01*
X29202796Y-28938211D01*
X29202795Y-28938209D01*
X29202795Y-28938203D01*
X29145076Y-28773254D01*
X29052101Y-28625284D01*
X28928530Y-28501713D01*
X28780560Y-28408738D01*
X28703485Y-28381768D01*
X28664174Y-28368012D01*
X28607399Y-28327290D01*
X28586266Y-28282833D01*
X28586032Y-28282916D01*
X28585267Y-28280732D01*
X28584240Y-28278570D01*
X28583733Y-28276352D01*
X28583732Y-28276343D01*
X28574770Y-28250731D01*
X36018858Y-28250731D01*
X36018858Y-28250738D01*
X36038422Y-28424383D01*
X36038424Y-28424393D01*
X36096142Y-28589339D01*
X36096143Y-28589341D01*
X36189118Y-28737311D01*
X36312689Y-28860882D01*
X36460659Y-28953857D01*
X36625608Y-29011576D01*
X36625614Y-29011576D01*
X36625616Y-29011577D01*
X36799261Y-29031142D01*
X36799265Y-29031142D01*
X36799269Y-29031142D01*
X36972913Y-29011577D01*
X36972912Y-29011577D01*
X36972922Y-29011576D01*
X37137871Y-28953857D01*
X37285841Y-28860882D01*
X37296404Y-28850319D01*
X37357727Y-28816834D01*
X37384085Y-28814000D01*
X42215990Y-28814000D01*
X42283029Y-28833685D01*
X42328784Y-28886489D01*
X42337224Y-28916949D01*
X42337608Y-28916862D01*
X42339159Y-28923658D01*
X42369924Y-29011577D01*
X42396878Y-29088606D01*
X42489853Y-29236576D01*
X42613424Y-29360147D01*
X42761394Y-29453122D01*
X42926343Y-29510841D01*
X42926349Y-29510841D01*
X42926351Y-29510842D01*
X43099996Y-29530407D01*
X43100000Y-29530407D01*
X43100004Y-29530407D01*
X43273648Y-29510842D01*
X43273647Y-29510842D01*
X43273657Y-29510841D01*
X43438606Y-29453122D01*
X43586576Y-29360147D01*
X43710147Y-29236576D01*
X43803122Y-29088606D01*
X43860841Y-28923657D01*
X43880407Y-28750000D01*
X43878977Y-28737311D01*
X43860842Y-28576351D01*
X43860841Y-28576349D01*
X43860841Y-28576343D01*
X43803122Y-28411394D01*
X43710147Y-28263424D01*
X43684404Y-28237681D01*
X43650919Y-28176358D01*
X43655903Y-28106666D01*
X43684404Y-28062319D01*
X43710147Y-28036576D01*
X43803122Y-27888606D01*
X43860841Y-27723657D01*
X43865140Y-27685499D01*
X43880407Y-27550003D01*
X43880407Y-27549996D01*
X43860842Y-27376351D01*
X43860841Y-27376349D01*
X43860841Y-27376343D01*
X43803122Y-27211394D01*
X43710147Y-27063424D01*
X43586576Y-26939853D01*
X43438606Y-26846878D01*
X43438605Y-26846877D01*
X43438604Y-26846877D01*
X43273658Y-26789159D01*
X43273648Y-26789157D01*
X43100004Y-26769593D01*
X43099996Y-26769593D01*
X42926351Y-26789157D01*
X42926341Y-26789159D01*
X42761392Y-26846878D01*
X42649803Y-26916994D01*
X42583832Y-26936000D01*
X37695276Y-26936000D01*
X37628237Y-26916315D01*
X37582482Y-26863511D01*
X37572056Y-26825882D01*
X37560842Y-26726351D01*
X37560841Y-26726349D01*
X37560841Y-26726343D01*
X37503122Y-26561394D01*
X37410147Y-26413424D01*
X37286576Y-26289853D01*
X37138606Y-26196878D01*
X37138605Y-26196877D01*
X37138604Y-26196877D01*
X36973658Y-26139159D01*
X36973648Y-26139157D01*
X36800004Y-26119593D01*
X36799996Y-26119593D01*
X36626351Y-26139157D01*
X36626341Y-26139159D01*
X36461395Y-26196877D01*
X36313423Y-26289853D01*
X36189853Y-26413423D01*
X36096877Y-26561395D01*
X36039159Y-26726341D01*
X36039157Y-26726351D01*
X36019593Y-26899996D01*
X36019593Y-26900003D01*
X36039157Y-27073648D01*
X36039159Y-27073658D01*
X36096877Y-27238604D01*
X36189853Y-27386576D01*
X36290596Y-27487319D01*
X36324081Y-27548642D01*
X36319097Y-27618334D01*
X36290596Y-27662681D01*
X36189118Y-27764158D01*
X36096142Y-27912130D01*
X36038424Y-28077076D01*
X36038422Y-28077086D01*
X36018858Y-28250731D01*
X28574770Y-28250731D01*
X28526013Y-28111394D01*
X28433038Y-27963424D01*
X28309467Y-27839853D01*
X28161497Y-27746878D01*
X28161496Y-27746877D01*
X28161495Y-27746877D01*
X27996549Y-27689159D01*
X27996539Y-27689157D01*
X27822895Y-27669593D01*
X27822887Y-27669593D01*
X27649242Y-27689157D01*
X27649237Y-27689158D01*
X27549114Y-27724193D01*
X27479336Y-27727754D01*
X27418708Y-27693025D01*
X27386481Y-27631032D01*
X27392886Y-27561456D01*
X27420479Y-27519469D01*
X27480073Y-27459875D01*
X27568019Y-27314395D01*
X27618590Y-27152106D01*
X27625000Y-27081572D01*
X27625000Y-27075000D01*
X26524000Y-27075000D01*
X26456961Y-27055315D01*
X26411206Y-27002511D01*
X26400000Y-26951000D01*
X26400000Y-26575000D01*
X26900000Y-26575000D01*
X27624999Y-26575000D01*
X27624999Y-26568417D01*
X27618591Y-26497897D01*
X27618590Y-26497892D01*
X27568018Y-26335603D01*
X27480072Y-26190122D01*
X27359877Y-26069927D01*
X27214395Y-25981980D01*
X27214396Y-25981980D01*
X27052105Y-25931409D01*
X27052106Y-25931409D01*
X26981572Y-25925000D01*
X26900000Y-25925000D01*
X26900000Y-26575000D01*
X26400000Y-26575000D01*
X26400000Y-25925000D01*
X26399999Y-25924999D01*
X26318417Y-25925000D01*
X26247897Y-25931408D01*
X26247892Y-25931409D01*
X26085603Y-25981981D01*
X25940122Y-26069927D01*
X25819927Y-26190122D01*
X25731980Y-26335604D01*
X25681409Y-26497893D01*
X25675996Y-26557462D01*
X25650325Y-26622444D01*
X25593597Y-26663232D01*
X25523822Y-26666876D01*
X25491538Y-26651582D01*
X25490403Y-26653549D01*
X25483366Y-26649486D01*
X25483365Y-26649485D01*
X25420437Y-26613153D01*
X25352136Y-26573719D01*
X25278950Y-26554109D01*
X25205766Y-26534500D01*
X25054234Y-26534500D01*
X24907863Y-26573719D01*
X24776635Y-26649485D01*
X24776632Y-26649487D01*
X24669487Y-26756632D01*
X24669485Y-26756635D01*
X24593719Y-26887863D01*
X24554500Y-27034234D01*
X20500500Y-27034234D01*
X20500500Y-25049996D01*
X33219593Y-25049996D01*
X33219593Y-25050003D01*
X33239157Y-25223648D01*
X33239159Y-25223657D01*
X33296878Y-25388606D01*
X33389853Y-25536576D01*
X33513424Y-25660147D01*
X33661394Y-25753122D01*
X33826343Y-25810841D01*
X33826349Y-25810841D01*
X33826351Y-25810842D01*
X33999996Y-25830407D01*
X34000000Y-25830407D01*
X34000004Y-25830407D01*
X34173648Y-25810842D01*
X34173647Y-25810842D01*
X34173657Y-25810841D01*
X34338606Y-25753122D01*
X34486576Y-25660147D01*
X34610147Y-25536576D01*
X34652925Y-25468492D01*
X34670230Y-25446793D01*
X35076205Y-25040819D01*
X35137528Y-25007334D01*
X35163886Y-25004500D01*
X36569554Y-25004500D01*
X36569574Y-25004501D01*
X36575688Y-25004501D01*
X36724314Y-25004501D01*
X36845894Y-24980315D01*
X36845894Y-24980316D01*
X36845900Y-24980313D01*
X36870080Y-24975505D01*
X36905942Y-24960649D01*
X36926944Y-24951951D01*
X36926947Y-24951949D01*
X36926955Y-24951946D01*
X37007389Y-24918630D01*
X37130966Y-24836059D01*
X37746794Y-24220229D01*
X37768496Y-24202923D01*
X37836576Y-24160147D01*
X37960147Y-24036576D01*
X38053122Y-23888606D01*
X38110841Y-23723657D01*
X38125125Y-23596878D01*
X38130407Y-23550003D01*
X38130407Y-23549996D01*
X38110842Y-23376351D01*
X38110841Y-23376349D01*
X38110841Y-23376343D01*
X38053122Y-23211394D01*
X37960147Y-23063424D01*
X37836576Y-22939853D01*
X37688606Y-22846878D01*
X37688605Y-22846877D01*
X37688604Y-22846877D01*
X37523658Y-22789159D01*
X37523648Y-22789157D01*
X37350004Y-22769593D01*
X37349996Y-22769593D01*
X37176351Y-22789157D01*
X37176341Y-22789159D01*
X37011395Y-22846877D01*
X36863423Y-22939853D01*
X36739853Y-23063423D01*
X36739851Y-23063426D01*
X36697075Y-23131503D01*
X36679763Y-23153211D01*
X36373794Y-23459181D01*
X36312471Y-23492666D01*
X36286113Y-23495500D01*
X34880446Y-23495500D01*
X34880426Y-23495499D01*
X34874312Y-23495499D01*
X34725688Y-23495499D01*
X34725687Y-23495499D01*
X34665126Y-23507546D01*
X34604564Y-23519593D01*
X34586037Y-23523278D01*
X34579919Y-23524495D01*
X34529212Y-23545499D01*
X34529211Y-23545499D01*
X34442613Y-23581368D01*
X34442611Y-23581370D01*
X34319033Y-23663941D01*
X34266487Y-23716487D01*
X34213941Y-23769034D01*
X34213939Y-23769036D01*
X33603209Y-24379764D01*
X33581501Y-24397076D01*
X33513427Y-24439850D01*
X33513425Y-24439851D01*
X33389853Y-24563423D01*
X33296877Y-24711395D01*
X33239159Y-24876341D01*
X33239157Y-24876351D01*
X33219593Y-25049996D01*
X20500500Y-25049996D01*
X20500500Y-20624500D01*
X20520185Y-20557461D01*
X20572989Y-20511706D01*
X20624500Y-20500500D01*
X49375500Y-20500500D01*
X49442539Y-20520185D01*
G37*
%TD.AperFunction*%
%TD*%
M02*
